<svg xmlns="http://www.w3.org/2000/svg" xmlns:xlink="http://www.w3.org/1999/xlink" width="300" zoomAndPan="magnify" viewBox="0 0 224.87999 225" height="300" preserveAspectRatio="xMidYMid meet" version="1.0"><defs><clipPath id="47d090c945"><path d="M 0 0.0585938 L 224.761719 0.0585938 L 224.761719 224.9375 L 0 224.9375 Z M 0 0.0585938 " clip-rule="nonzero"/></clipPath><clipPath id="0474b885df"><path d="M 112.441406 0.0585938 C 50.339844 0.0585938 0 50.402344 0 112.5 C 0 174.597656 50.339844 224.941406 112.441406 224.941406 C 174.539062 224.941406 224.878906 174.597656 224.878906 112.5 C 224.878906 50.402344 174.539062 0.0585938 112.441406 0.0585938 " clip-rule="nonzero"/></clipPath><clipPath id="0f82ecbe85"><path d="M 45.246094 40.828125 L 179.425781 40.828125 L 179.425781 184 L 45.246094 184 Z M 45.246094 40.828125 " clip-rule="nonzero"/></clipPath></defs><g clip-path="url(#47d090c945)"><g clip-path="url(#0474b885df)"><path fill="#178429" d="M 0 0.0585938 L 224.878906 0.0585938 L 224.878906 224.941406 L 0 224.941406 Z M 0 0.0585938 " fill-opacity="1" fill-rule="nonzero"/></g></g><path fill="#ffffff" d="M 110.101562 49.777344 C 109.148438 49.777344 108.199219 49.824219 107.25 49.917969 C 106.300781 50.007812 105.363281 50.148438 104.429688 50.335938 C 103.496094 50.519531 102.570312 50.753906 101.660156 51.027344 C 100.75 51.304688 99.855469 51.625 98.972656 51.988281 C 98.09375 52.355469 97.234375 52.761719 96.394531 53.210938 C 95.554688 53.660156 94.738281 54.148438 93.949219 54.675781 C 93.15625 55.207031 92.394531 55.773438 91.65625 56.378906 C 90.921875 56.980469 90.214844 57.621094 89.542969 58.292969 C 88.871094 58.96875 88.230469 59.671875 87.625 60.410156 C 87.023438 61.144531 86.457031 61.910156 85.925781 62.699219 C 85.398438 63.492188 84.910156 64.308594 84.460938 65.148438 C 84.011719 65.988281 83.605469 66.847656 83.242188 67.730469 C 82.875 68.609375 82.554688 69.503906 82.28125 70.417969 C 82.003906 71.328125 81.773438 72.25 81.585938 73.183594 C 81.402344 74.117188 81.261719 75.058594 81.167969 76.007812 C 81.074219 76.957031 81.027344 77.90625 81.027344 78.859375 C 81.027344 79.8125 81.074219 80.761719 81.167969 81.707031 C 81.261719 82.65625 81.402344 83.597656 81.585938 84.53125 C 81.773438 85.464844 82.003906 86.386719 82.28125 87.300781 C 82.554688 88.210938 82.875 89.105469 83.242188 89.988281 C 83.605469 90.867188 84.011719 91.726562 84.460938 92.566406 C 84.910156 93.40625 85.398438 94.222656 85.925781 95.015625 C 86.457031 95.808594 87.023438 96.570312 87.625 97.308594 C 88.230469 98.042969 88.871094 98.75 89.542969 99.421875 C 90.214844 100.09375 90.921875 100.734375 91.65625 101.339844 C 92.394531 101.941406 93.15625 102.507812 93.949219 103.039062 C 94.738281 103.566406 95.554688 104.058594 96.394531 104.507812 C 97.234375 104.953125 98.09375 105.363281 98.972656 105.726562 C 99.855469 106.089844 100.75 106.410156 101.660156 106.6875 C 102.570312 106.964844 103.496094 107.195312 104.429688 107.382812 C 105.363281 107.566406 106.300781 107.707031 107.25 107.800781 C 108.199219 107.894531 109.148438 107.941406 110.101562 107.941406 C 111.050781 107.941406 112 107.894531 112.949219 107.800781 C 113.898438 107.707031 114.835938 107.566406 115.769531 107.382812 C 116.707031 107.195312 117.628906 106.964844 118.539062 106.6875 C 119.449219 106.410156 120.34375 106.089844 121.226562 105.726562 C 122.105469 105.363281 122.964844 104.953125 123.804688 104.507812 C 124.644531 104.058594 125.460938 103.566406 126.25 103.039062 C 127.042969 102.507812 127.808594 101.941406 128.542969 101.339844 C 129.277344 100.734375 129.984375 100.09375 130.65625 99.421875 C 131.328125 98.75 131.96875 98.042969 132.574219 97.308594 C 133.175781 96.570312 133.742188 95.808594 134.273438 95.015625 C 134.800781 94.222656 135.289062 93.40625 135.738281 92.566406 C 136.1875 91.726562 136.59375 90.867188 136.957031 89.988281 C 137.324219 89.105469 137.644531 88.210938 137.917969 87.300781 C 138.195312 86.386719 138.425781 85.464844 138.613281 84.53125 C 138.796875 83.597656 138.9375 82.65625 139.03125 81.707031 C 139.125 80.761719 139.171875 79.8125 139.171875 78.859375 C 139.171875 77.90625 139.125 76.957031 139.03125 76.007812 C 138.9375 75.058594 138.796875 74.117188 138.613281 73.183594 C 138.425781 72.25 138.195312 71.328125 137.917969 70.417969 C 137.644531 69.503906 137.324219 68.609375 136.957031 67.730469 C 136.59375 66.847656 136.1875 65.988281 135.738281 65.148438 C 135.289062 64.308594 134.800781 63.492188 134.273438 62.699219 C 133.742188 61.910156 133.175781 61.144531 132.574219 60.410156 C 131.96875 59.671875 131.328125 58.96875 130.65625 58.292969 C 129.984375 57.621094 129.277344 56.980469 128.542969 56.378906 C 127.808594 55.773438 127.042969 55.207031 126.25 54.675781 C 125.460938 54.148438 124.644531 53.660156 123.804688 53.210938 C 122.964844 52.761719 122.105469 52.355469 121.226562 51.988281 C 120.34375 51.625 119.449219 51.304688 118.539062 51.027344 C 117.628906 50.753906 116.707031 50.519531 115.769531 50.335938 C 114.835938 50.148438 113.898438 50.007812 112.949219 49.917969 C 112 49.824219 111.050781 49.777344 110.101562 49.777344 Z M 110.101562 103.464844 C 109.292969 103.464844 108.492188 103.425781 107.6875 103.347656 C 106.886719 103.269531 106.089844 103.148438 105.300781 102.992188 C 104.511719 102.835938 103.730469 102.640625 102.957031 102.40625 C 102.1875 102.171875 101.429688 101.902344 100.6875 101.59375 C 99.941406 101.285156 99.214844 100.941406 98.503906 100.558594 C 97.792969 100.179688 97.101562 99.765625 96.433594 99.320312 C 95.761719 98.871094 95.117188 98.390625 94.492188 97.878906 C 93.871094 97.367188 93.273438 96.828125 92.707031 96.257812 C 92.136719 95.6875 91.59375 95.09375 91.085938 94.46875 C 90.574219 93.847656 90.09375 93.199219 89.644531 92.53125 C 89.199219 91.859375 88.785156 91.167969 88.40625 90.457031 C 88.023438 89.746094 87.679688 89.019531 87.371094 88.273438 C 87.066406 87.53125 86.792969 86.773438 86.558594 86 C 86.324219 85.230469 86.128906 84.449219 85.972656 83.660156 C 85.816406 82.867188 85.699219 82.070312 85.617188 81.269531 C 85.539062 80.46875 85.5 79.664062 85.5 78.859375 C 85.5 78.050781 85.539062 77.25 85.617188 76.445312 C 85.699219 75.644531 85.816406 74.847656 85.972656 74.058594 C 86.128906 73.265625 86.324219 72.484375 86.558594 71.714844 C 86.792969 70.945312 87.066406 70.1875 87.371094 69.441406 C 87.679688 68.695312 88.023438 67.96875 88.40625 67.257812 C 88.785156 66.546875 89.199219 65.855469 89.644531 65.1875 C 90.09375 64.515625 90.574219 63.871094 91.085938 63.246094 C 91.59375 62.625 92.136719 62.027344 92.707031 61.457031 C 93.273438 60.886719 93.871094 60.347656 94.492188 59.835938 C 95.117188 59.324219 95.761719 58.84375 96.433594 58.398438 C 97.101562 57.949219 97.792969 57.535156 98.503906 57.15625 C 99.214844 56.777344 99.941406 56.433594 100.6875 56.125 C 101.429688 55.816406 102.1875 55.542969 102.957031 55.308594 C 103.730469 55.074219 104.511719 54.878906 105.300781 54.722656 C 106.089844 54.566406 106.886719 54.449219 107.6875 54.367188 C 108.492188 54.289062 109.292969 54.25 110.101562 54.25 C 110.90625 54.25 111.710938 54.289062 112.511719 54.367188 C 113.3125 54.449219 114.109375 54.566406 114.898438 54.722656 C 115.6875 54.878906 116.46875 55.074219 117.242188 55.308594 C 118.011719 55.542969 118.769531 55.816406 119.511719 56.125 C 120.257812 56.433594 120.984375 56.777344 121.695312 57.15625 C 122.40625 57.535156 123.097656 57.949219 123.765625 58.398438 C 124.4375 58.84375 125.082031 59.324219 125.707031 59.835938 C 126.328125 60.347656 126.925781 60.886719 127.492188 61.457031 C 128.0625 62.027344 128.605469 62.625 129.117188 63.246094 C 129.625 63.871094 130.105469 64.515625 130.554688 65.1875 C 131 65.855469 131.414062 66.546875 131.792969 67.257812 C 132.175781 67.96875 132.519531 68.695312 132.828125 69.441406 C 133.136719 70.1875 133.40625 70.945312 133.640625 71.714844 C 133.875 72.484375 134.070312 73.265625 134.226562 74.058594 C 134.382812 74.847656 134.5 75.644531 134.582031 76.445312 C 134.660156 77.25 134.699219 78.050781 134.699219 78.859375 C 134.699219 79.664062 134.660156 80.46875 134.582031 81.269531 C 134.5 82.070312 134.382812 82.867188 134.226562 83.660156 C 134.070312 84.449219 133.875 85.230469 133.640625 86 C 133.40625 86.773438 133.136719 87.53125 132.828125 88.273438 C 132.519531 89.019531 132.175781 89.746094 131.792969 90.457031 C 131.414062 91.167969 131 91.859375 130.554688 92.53125 C 130.105469 93.199219 129.625 93.847656 129.117188 94.46875 C 128.605469 95.09375 128.0625 95.6875 127.492188 96.257812 C 126.925781 96.828125 126.328125 97.367188 125.707031 97.878906 C 125.082031 98.390625 124.4375 98.871094 123.765625 99.320312 C 123.097656 99.765625 122.40625 100.179688 121.695312 100.558594 C 120.984375 100.941406 120.257812 101.285156 119.511719 101.59375 C 118.769531 101.902344 118.011719 102.171875 117.242188 102.40625 C 116.46875 102.640625 115.6875 102.835938 114.898438 102.992188 C 114.109375 103.148438 113.3125 103.269531 112.511719 103.347656 C 111.710938 103.425781 110.90625 103.464844 110.101562 103.464844 Z M 110.101562 103.464844 " fill-opacity="1" fill-rule="nonzero"/><path fill="#ffffff" d="M 113.253906 68.992188 C 114.128906 69.863281 114.566406 70.914062 114.574219 72.148438 L 119.042969 72.148438 C 119.046875 70.960938 118.820312 69.816406 118.367188 68.722656 C 117.914062 67.625 117.265625 66.65625 116.429688 65.816406 C 115.273438 64.691406 113.90625 63.945312 112.335938 63.578125 L 112.335938 60.960938 L 107.863281 60.960938 L 107.863281 63.578125 C 106.292969 63.945312 104.925781 64.691406 103.769531 65.816406 C 103.144531 66.441406 102.621094 67.144531 102.207031 67.925781 C 101.789062 68.707031 101.492188 69.53125 101.320312 70.398438 C 101.148438 71.269531 101.105469 72.140625 101.191406 73.023438 C 101.277344 73.90625 101.488281 74.753906 101.828125 75.570312 C 102.167969 76.390625 102.617188 77.140625 103.179688 77.824219 C 103.742188 78.511719 104.390625 79.097656 105.125 79.589844 C 105.863281 80.082031 106.652344 80.453125 107.5 80.710938 C 108.347656 80.96875 109.214844 81.097656 110.101562 81.09375 C 111.328125 81.09375 112.378906 81.527344 113.253906 82.394531 C 114.132812 83.269531 114.574219 84.328125 114.574219 85.570312 C 114.566406 86.800781 114.128906 87.855469 113.253906 88.722656 C 113.046875 88.929688 112.820312 89.113281 112.578125 89.277344 C 112.332031 89.4375 112.074219 89.574219 111.804688 89.6875 C 111.535156 89.796875 111.257812 89.882812 110.96875 89.9375 C 110.683594 89.996094 110.390625 90.023438 110.101562 90.023438 C 109.808594 90.023438 109.515625 89.996094 109.230469 89.9375 C 108.945312 89.882812 108.664062 89.796875 108.394531 89.6875 C 108.125 89.574219 107.867188 89.4375 107.625 89.277344 C 107.378906 89.113281 107.152344 88.929688 106.945312 88.722656 C 106.070312 87.855469 105.632812 86.800781 105.628906 85.570312 L 101.15625 85.570312 C 101.15625 86.0625 101.199219 86.546875 101.28125 87.03125 C 101.363281 87.515625 101.484375 87.992188 101.644531 88.457031 C 101.804688 88.921875 102 89.371094 102.234375 89.800781 C 102.46875 90.234375 102.734375 90.644531 103.035156 91.03125 C 103.339844 91.417969 103.667969 91.78125 104.03125 92.113281 C 104.390625 92.445312 104.777344 92.75 105.1875 93.019531 C 105.597656 93.289062 106.027344 93.523438 106.476562 93.722656 C 106.925781 93.921875 107.386719 94.082031 107.863281 94.203125 L 107.863281 96.753906 L 112.335938 96.753906 L 112.335938 94.203125 C 112.851562 94.0625 113.351562 93.878906 113.835938 93.648438 C 114.320312 93.417969 114.777344 93.148438 115.210938 92.835938 C 115.648438 92.523438 116.050781 92.175781 116.421875 91.789062 C 116.796875 91.402344 117.128906 90.988281 117.425781 90.542969 C 117.726562 90.097656 117.980469 89.632812 118.195312 89.140625 C 118.40625 88.648438 118.578125 88.144531 118.699219 87.621094 C 118.820312 87.101562 118.898438 86.574219 118.925781 86.039062 C 118.953125 85.503906 118.933594 84.96875 118.867188 84.4375 C 118.796875 83.90625 118.683594 83.386719 118.523438 82.875 C 118.363281 82.367188 118.15625 81.875 117.90625 81.398438 C 117.660156 80.925781 117.367188 80.476562 117.039062 80.054688 C 116.710938 79.636719 116.34375 79.246094 115.945312 78.890625 C 115.546875 78.53125 115.117188 78.214844 114.660156 77.9375 C 114.203125 77.65625 113.726562 77.417969 113.226562 77.226562 C 112.730469 77.03125 112.214844 76.886719 111.691406 76.78125 C 111.164062 76.679688 110.636719 76.628906 110.101562 76.621094 C 109.660156 76.621094 109.226562 76.554688 108.804688 76.425781 C 108.382812 76.292969 107.992188 76.105469 107.625 75.859375 C 107.257812 75.613281 106.9375 75.320312 106.65625 74.980469 C 106.378906 74.640625 106.152344 74.265625 105.984375 73.855469 C 105.816406 73.449219 105.710938 73.027344 105.667969 72.585938 C 105.625 72.148438 105.644531 71.710938 105.730469 71.277344 C 105.816406 70.847656 105.960938 70.433594 106.167969 70.046875 C 106.375 69.65625 106.636719 69.304688 106.945312 68.992188 C 107.152344 68.785156 107.378906 68.601562 107.625 68.441406 C 107.867188 68.277344 108.125 68.140625 108.394531 68.03125 C 108.664062 67.917969 108.945312 67.832031 109.230469 67.777344 C 109.515625 67.71875 109.808594 67.691406 110.101562 67.691406 C 110.390625 67.691406 110.683594 67.71875 110.96875 67.777344 C 111.257812 67.832031 111.535156 67.917969 111.804688 68.03125 C 112.074219 68.140625 112.332031 68.277344 112.578125 68.441406 C 112.820312 68.601562 113.046875 68.785156 113.253906 68.992188 Z M 113.253906 68.992188 " fill-opacity="1" fill-rule="nonzero"/><g clip-path="url(#0f82ecbe85)"><path fill="#ffffff" d="M 163.769531 40.828125 L 83.265625 40.828125 C 82.234375 40.828125 81.21875 40.929688 80.210938 41.128906 C 79.203125 41.328125 78.222656 41.625 77.273438 42.019531 C 76.324219 42.414062 75.421875 42.894531 74.566406 43.46875 C 73.710938 44.039062 72.921875 44.6875 72.195312 45.414062 C 71.46875 46.140625 70.820312 46.933594 70.246094 47.789062 C 69.675781 48.640625 69.195312 49.542969 68.800781 50.496094 C 68.40625 51.445312 68.109375 52.425781 67.910156 53.433594 C 67.710938 54.441406 67.609375 55.460938 67.609375 56.488281 L 67.609375 166.105469 L 47.484375 166.105469 C 47.1875 166.105469 46.902344 166.160156 46.628906 166.273438 C 46.351562 166.386719 46.113281 166.550781 45.902344 166.757812 C 45.691406 166.96875 45.53125 167.210938 45.417969 167.484375 C 45.304688 167.757812 45.246094 168.042969 45.246094 168.339844 C 45.246094 169.367188 45.347656 170.386719 45.546875 171.394531 C 45.75 172.402344 46.046875 173.382812 46.4375 174.332031 C 46.832031 175.28125 47.3125 176.1875 47.886719 177.039062 C 48.457031 177.894531 49.105469 178.6875 49.832031 179.414062 C 50.558594 180.140625 51.347656 180.789062 52.203125 181.359375 C 53.058594 181.933594 53.960938 182.414062 54.910156 182.808594 C 55.859375 183.203125 56.839844 183.5 57.847656 183.699219 C 58.855469 183.898438 59.875 184 60.902344 184 L 136.933594 184 C 137.964844 184 138.980469 183.898438 139.988281 183.699219 C 140.996094 183.5 141.976562 183.203125 142.925781 182.808594 C 143.875 182.414062 144.777344 181.933594 145.632812 181.359375 C 146.488281 180.789062 147.277344 180.140625 148.003906 179.414062 C 148.730469 178.6875 149.378906 177.894531 149.953125 177.039062 C 150.523438 176.1875 151.003906 175.28125 151.398438 174.332031 C 151.792969 173.382812 152.089844 172.402344 152.289062 171.394531 C 152.488281 170.386719 152.589844 169.367188 152.589844 168.339844 L 152.589844 157.15625 L 148.117188 157.15625 L 148.117188 168.339844 C 148.117188 169.074219 148.046875 169.800781 147.902344 170.523438 C 147.757812 171.242188 147.546875 171.941406 147.265625 172.621094 C 146.984375 173.300781 146.640625 173.945312 146.234375 174.554688 C 145.824219 175.164062 145.359375 175.730469 144.84375 176.25 C 144.324219 176.769531 143.757812 177.234375 143.148438 177.640625 C 142.535156 178.050781 141.894531 178.394531 141.214844 178.675781 C 140.535156 178.957031 139.835938 179.167969 139.117188 179.3125 C 138.398438 179.453125 137.667969 179.527344 136.933594 179.527344 C 136.199219 179.527344 135.472656 179.453125 134.753906 179.3125 C 134.035156 179.167969 133.335938 178.957031 132.65625 178.675781 C 131.976562 178.394531 131.332031 178.050781 130.722656 177.640625 C 130.113281 177.234375 129.546875 176.769531 129.027344 176.25 C 128.507812 175.730469 128.046875 175.164062 127.636719 174.554688 C 127.230469 173.945312 126.886719 173.300781 126.605469 172.621094 C 126.324219 171.941406 126.113281 171.242188 125.96875 170.523438 C 125.824219 169.800781 125.753906 169.074219 125.753906 168.339844 C 125.753906 168.042969 125.695312 167.757812 125.582031 167.484375 C 125.46875 167.210938 125.308594 166.96875 125.097656 166.757812 C 124.890625 166.550781 124.648438 166.386719 124.375 166.273438 C 124.097656 166.160156 123.8125 166.105469 123.515625 166.105469 L 72.082031 166.105469 L 72.082031 56.488281 C 72.082031 55.753906 72.152344 55.027344 72.296875 54.304688 C 72.441406 53.585938 72.652344 52.886719 72.933594 52.207031 C 73.214844 51.527344 73.558594 50.882812 73.96875 50.273438 C 74.375 49.664062 74.839844 49.097656 75.359375 48.578125 C 75.875 48.058594 76.441406 47.59375 77.050781 47.1875 C 77.664062 46.777344 78.308594 46.433594 78.984375 46.152344 C 79.664062 45.871094 80.363281 45.660156 81.082031 45.515625 C 81.800781 45.375 82.53125 45.300781 83.265625 45.300781 L 152.835938 45.300781 C 151.328125 46.773438 150.167969 48.480469 149.347656 50.417969 C 148.53125 52.359375 148.121094 54.382812 148.117188 56.488281 L 148.117188 143.734375 L 152.589844 143.734375 L 152.589844 58.722656 L 177.1875 58.722656 C 177.484375 58.722656 177.769531 58.667969 178.042969 58.554688 C 178.320312 58.441406 178.558594 58.277344 178.769531 58.070312 C 178.980469 57.859375 179.140625 57.617188 179.253906 57.34375 C 179.367188 57.070312 179.425781 56.785156 179.425781 56.488281 C 179.425781 55.460938 179.324219 54.441406 179.125 53.433594 C 178.925781 52.425781 178.625 51.445312 178.234375 50.496094 C 177.839844 49.542969 177.359375 48.640625 176.785156 47.789062 C 176.214844 46.933594 175.566406 46.140625 174.839844 45.414062 C 174.113281 44.6875 173.324219 44.039062 172.46875 43.46875 C 171.613281 42.894531 170.710938 42.414062 169.761719 42.019531 C 168.8125 41.625 167.832031 41.328125 166.824219 41.128906 C 165.816406 40.929688 164.800781 40.828125 163.769531 40.828125 Z M 126 179.527344 L 60.902344 179.527344 C 60.261719 179.527344 59.625 179.472656 58.996094 179.363281 C 58.367188 179.253906 57.75 179.09375 57.148438 178.878906 C 56.542969 178.664062 55.964844 178.398438 55.40625 178.082031 C 54.851562 177.769531 54.324219 177.410156 53.828125 177.003906 C 53.332031 176.601562 52.875 176.15625 52.457031 175.671875 C 52.035156 175.191406 51.660156 174.675781 51.328125 174.128906 C 51 173.578125 50.71875 173.007812 50.484375 172.414062 C 50.25 171.816406 50.070312 171.203125 49.941406 170.578125 L 121.503906 170.578125 C 121.738281 172.277344 122.238281 173.894531 123.007812 175.425781 C 123.777344 176.957031 124.777344 178.324219 126 179.527344 Z M 152.835938 54.25 C 152.960938 53.621094 153.144531 53.011719 153.375 52.414062 C 153.609375 51.816406 153.890625 51.246094 154.21875 50.695312 C 154.550781 50.148438 154.925781 49.632812 155.34375 49.148438 C 155.765625 48.664062 156.222656 48.222656 156.71875 47.816406 C 157.210938 47.410156 157.738281 47.050781 158.296875 46.734375 C 158.855469 46.421875 159.433594 46.15625 160.035156 45.941406 C 160.640625 45.726562 161.257812 45.5625 161.886719 45.453125 C 162.519531 45.34375 163.152344 45.289062 163.792969 45.289062 C 164.433594 45.289062 165.070312 45.34375 165.699219 45.453125 C 166.332031 45.5625 166.945312 45.726562 167.550781 45.941406 C 168.152344 46.15625 168.734375 46.421875 169.289062 46.734375 C 169.847656 47.050781 170.375 47.410156 170.871094 47.816406 C 171.363281 48.222656 171.824219 48.664062 172.242188 49.148438 C 172.660156 49.632812 173.035156 50.148438 173.367188 50.695312 C 173.699219 51.246094 173.980469 51.816406 174.210938 52.414062 C 174.445312 53.011719 174.625 53.621094 174.75 54.25 Z M 152.835938 54.25 " fill-opacity="1" fill-rule="nonzero"/></g><path fill="#ffffff" d="M 83.265625 137.023438 L 101.15625 137.023438 L 101.15625 141.496094 L 83.265625 141.496094 Z M 83.265625 137.023438 " fill-opacity="1" fill-rule="nonzero"/><path fill="#ffffff" d="M 83.265625 148.207031 L 101.15625 148.207031 L 101.15625 152.679688 L 83.265625 152.679688 Z M 83.265625 148.207031 " fill-opacity="1" fill-rule="nonzero"/><path fill="#ffffff" d="M 83.265625 114.652344 L 101.15625 114.652344 L 101.15625 119.125 L 83.265625 119.125 Z M 83.265625 114.652344 " fill-opacity="1" fill-rule="nonzero"/><path fill="#ffffff" d="M 83.265625 125.835938 L 101.15625 125.835938 L 101.15625 130.308594 L 83.265625 130.308594 Z M 83.265625 125.835938 " fill-opacity="1" fill-rule="nonzero"/><path fill="#ffffff" d="M 119.042969 114.652344 L 136.933594 114.652344 L 136.933594 119.125 L 119.042969 119.125 Z M 119.042969 114.652344 " fill-opacity="1" fill-rule="nonzero"/><path fill="#ffffff" d="M 119.042969 125.835938 L 136.933594 125.835938 L 136.933594 130.308594 L 119.042969 130.308594 Z M 119.042969 125.835938 " fill-opacity="1" fill-rule="nonzero"/><path fill="#ffffff" d="M 119.042969 137.023438 L 136.933594 137.023438 L 136.933594 141.496094 L 119.042969 141.496094 Z M 119.042969 137.023438 " fill-opacity="1" fill-rule="nonzero"/><path fill="#ffffff" d="M 119.042969 148.207031 L 136.933594 148.207031 L 136.933594 152.679688 L 119.042969 152.679688 Z M 119.042969 148.207031 " fill-opacity="1" fill-rule="nonzero"/><path fill="#ffffff" d="M 148.117188 148.207031 L 152.589844 148.207031 L 152.589844 152.679688 L 148.117188 152.679688 Z M 148.117188 148.207031 " fill-opacity="1" fill-rule="nonzero"/></svg>