<svg xmlns="http://www.w3.org/2000/svg" xmlns:xlink="http://www.w3.org/1999/xlink" width="300" zoomAndPan="magnify" viewBox="0 0 224.87999 225" height="300" preserveAspectRatio="xMidYMid meet" version="1.0"><defs><clipPath id="bb30cfdf4b"><path d="M 0 0.0585938 L 224.761719 0.0585938 L 224.761719 224.9375 L 0 224.9375 Z M 0 0.0585938 " clip-rule="nonzero"/></clipPath><clipPath id="8a9a76e49d"><path d="M 112.441406 0.0585938 C 50.339844 0.0585938 0 50.402344 0 112.5 C 0 174.597656 50.339844 224.941406 112.441406 224.941406 C 174.539062 224.941406 224.878906 174.597656 224.878906 112.5 C 224.878906 50.402344 174.539062 0.0585938 112.441406 0.0585938 " clip-rule="nonzero"/></clipPath><clipPath id="5a37776ab4"><path d="M 71 117 L 153 117 L 153 164.523438 L 71 164.523438 Z M 71 117 " clip-rule="nonzero"/></clipPath></defs><g clip-path="url(#bb30cfdf4b)"><g clip-path="url(#8a9a76e49d)"><path fill="#178429" d="M 0 0.0585938 L 224.878906 0.0585938 L 224.878906 224.941406 L 0 224.941406 Z M 0 0.0585938 " fill-opacity="1" fill-rule="nonzero"/></g></g><g clip-path="url(#5a37776ab4)"><path fill="#ffffff" d="M 76.957031 159.636719 L 147.46875 159.636719 L 142.105469 136.308594 C 140.824219 132.816406 138.800781 129.636719 136.179688 127 C 134.167969 124.953125 131.632812 123.496094 128.855469 122.777344 C 128.054688 122.578125 127.238281 122.464844 126.421875 122.441406 C 117.328125 126.410156 107.007812 126.410156 97.914062 122.441406 C 97.097656 122.464844 96.28125 122.578125 95.480469 122.777344 C 92.703125 123.496094 90.179688 124.9375 88.15625 126.988281 C 85.546875 129.625 83.523438 132.804688 82.230469 136.308594 Z M 150.542969 164.523438 L 73.894531 164.523438 C 73.152344 164.507812 72.449219 164.171875 71.984375 163.59375 C 71.53125 163.015625 71.355469 162.261719 71.519531 161.546875 L 77.621094 135.039062 C 77.609375 134.925781 77.609375 134.824219 77.621094 134.710938 C 79.140625 130.503906 81.578125 126.671875 84.742188 123.496094 C 87.441406 120.871094 90.796875 119.023438 94.449219 118.144531 C 95.792969 117.816406 97.160156 117.652344 98.53125 117.652344 C 98.945312 117.664062 99.359375 117.777344 99.722656 117.980469 C 103.628906 119.789062 107.910156 120.679688 112.21875 120.59375 C 116.527344 120.667969 120.808594 119.75 124.714844 117.90625 C 125.078125 117.703125 125.492188 117.589844 125.90625 117.589844 C 127.289062 117.578125 128.667969 117.753906 130 118.09375 C 133.640625 119.011719 136.957031 120.90625 139.59375 123.570312 C 142.769531 126.722656 145.195312 130.554688 146.714844 134.761719 C 146.726562 134.875 146.726562 134.976562 146.714844 135.089844 L 152.816406 161.59375 C 152.980469 162.3125 152.816406 163.066406 152.351562 163.644531 C 151.898438 164.183594 151.246094 164.496094 150.542969 164.523438 " fill-opacity="1" fill-rule="nonzero"/></g><path fill="#ffffff" d="M 112.21875 69.816406 C 108.074219 69.855469 104.132812 71.625 101.355469 74.703125 C 98.242188 77.996094 96.496094 82.367188 96.484375 86.902344 L 96.484375 92.882812 C 96.457031 96.410156 97.476562 99.867188 99.410156 102.816406 C 103.703125 109.863281 112.898438 112.089844 119.929688 107.792969 C 121.964844 106.5625 123.671875 104.851562 124.902344 102.816406 C 126.847656 99.867188 127.878906 96.398438 127.851562 92.855469 L 127.851562 86.925781 C 127.914062 82.417969 126.246094 78.058594 123.195312 74.730469 C 120.378906 71.640625 116.398438 69.855469 112.21875 69.816406 Z M 112.21875 114.902344 C 105.386719 114.828125 99.058594 111.308594 95.378906 105.554688 C 92.917969 101.800781 91.625 97.402344 91.648438 92.90625 L 91.648438 86.925781 C 91.597656 81.097656 93.808594 75.484375 97.828125 71.261719 C 105.109375 63.308594 117.453125 62.78125 125.402344 70.070312 C 125.804688 70.445312 126.207031 70.847656 126.585938 71.261719 L 126.808594 71.5 C 130.703125 75.707031 132.835938 81.25 132.789062 86.976562 L 132.789062 92.957031 C 132.8125 97.453125 131.507812 101.851562 129.019531 105.605469 C 125.355469 111.347656 119.039062 114.851562 112.21875 114.902344 " fill-opacity="1" fill-rule="nonzero"/><path fill="#ffffff" d="M 47.507812 122.804688 L 85.570312 122.804688 C 87.417969 121.144531 89.527344 119.8125 91.824219 118.882812 L 90.382812 115.066406 C 88.308594 109.625 84.527344 106.160156 80.371094 105.894531 C 74.007812 108.660156 66.773438 108.660156 60.394531 105.894531 C 56.273438 106.160156 52.46875 109.625 50.371094 115.066406 Z M 86.550781 127.691406 L 43.90625 127.691406 C 43.101562 127.691406 42.359375 127.300781 41.910156 126.636719 C 41.445312 125.96875 41.34375 125.128906 41.632812 124.375 L 45.828125 113.269531 C 48.777344 105.71875 54.515625 101.058594 60.984375 101.058594 C 61.398438 101.070312 61.8125 101.171875 62.175781 101.375 C 64.75 102.605469 67.578125 103.21875 70.425781 103.15625 C 73.277344 103.21875 76.117188 102.605469 78.691406 101.375 C 79.066406 101.171875 79.46875 101.070312 79.894531 101.058594 C 86.3125 101.058594 92.089844 105.792969 94.988281 113.40625 L 97.425781 119.613281 C 97.703125 120.265625 97.652344 120.996094 97.3125 121.609375 C 96.984375 122.238281 96.410156 122.691406 95.730469 122.855469 C 92.957031 123.570312 90.417969 125.015625 88.410156 127.050781 C 87.90625 127.515625 87.230469 127.742188 86.550781 127.691406 " fill-opacity="1" fill-rule="nonzero"/><path fill="#ffffff" d="M 70.375 66.890625 C 67.726562 66.902344 65.203125 68.019531 63.417969 69.96875 C 61.386719 72.128906 60.253906 74.980469 60.28125 77.945312 L 60.28125 82.101562 C 60.253906 84.390625 60.921875 86.625 62.175781 88.535156 C 64.890625 93.058594 70.753906 94.515625 75.273438 91.800781 C 76.605469 90.996094 77.722656 89.878906 78.527344 88.535156 C 79.808594 86.636719 80.5 84.390625 80.5 82.101562 L 80.5 77.945312 C 80.535156 75.054688 79.46875 72.265625 77.523438 70.144531 L 77.347656 69.96875 C 75.5625 68.007812 73.027344 66.890625 70.375 66.890625 Z M 70.375 98.058594 C 65.417969 97.992188 60.820312 95.417969 58.171875 91.222656 C 56.386719 88.523438 55.445312 85.34375 55.472656 82.101562 L 55.472656 77.945312 C 55.433594 73.738281 57.039062 69.679688 59.929688 66.625 C 65.277344 60.835938 74.320312 60.484375 80.109375 65.835938 C 80.371094 66.085938 80.636719 66.351562 80.886719 66.625 L 81.089844 66.816406 C 83.875 69.855469 85.40625 73.824219 85.382812 77.945312 L 85.382812 82.101562 C 85.394531 85.367188 84.441406 88.574219 82.621094 91.296875 C 79.945312 95.480469 75.335938 98.03125 70.375 98.058594 " fill-opacity="1" fill-rule="nonzero"/><path fill="#ffffff" d="M 138.851562 122.804688 L 176.863281 122.804688 L 173.949219 115.066406 C 171.839844 109.625 168.035156 106.160156 163.917969 105.894531 C 157.550781 108.671875 150.316406 108.695312 143.9375 105.945312 C 139.792969 106.210938 136.003906 109.675781 133.957031 115.117188 L 132.5 118.921875 C 134.785156 119.851562 136.894531 121.171875 138.738281 122.804688 Z M 180.53125 127.691406 L 137.761719 127.691406 C 137.121094 127.691406 136.515625 127.425781 136.050781 126.988281 C 134.03125 124.953125 131.507812 123.496094 128.730469 122.777344 C 128.054688 122.617188 127.476562 122.164062 127.148438 121.535156 C 126.835938 120.90625 126.835938 120.164062 127.148438 119.539062 L 129.296875 113.269531 C 132.273438 105.71875 138.050781 101.058594 144.464844 101.058594 C 144.894531 101.070312 145.292969 101.171875 145.660156 101.375 C 150.921875 103.761719 156.9375 103.761719 162.183594 101.375 C 162.574219 101.160156 163.011719 101.058594 163.453125 101.058594 C 169.871094 101.058594 175.644531 105.792969 178.558594 113.40625 L 182.753906 124.4375 C 183.042969 125.203125 182.941406 126.042969 182.476562 126.710938 C 182.027344 127.328125 181.296875 127.691406 180.53125 127.691406 " fill-opacity="1" fill-rule="nonzero"/><path fill="#ffffff" d="M 146.8125 70.144531 C 144.917969 72.292969 143.886719 75.082031 143.9375 77.945312 L 143.9375 82.101562 C 143.914062 84.390625 144.578125 86.625 145.835938 88.535156 C 148.574219 93.058594 154.449219 94.515625 158.96875 91.777344 C 160.300781 90.984375 161.40625 89.867188 162.210938 88.535156 C 163.464844 86.625 164.132812 84.363281 164.117188 82.078125 L 164.117188 77.917969 C 164.144531 74.980469 163.039062 72.140625 161.015625 69.992188 C 157.539062 66.148438 151.625 65.847656 147.78125 69.316406 C 147.542969 69.527344 147.316406 69.753906 147.101562 69.992188 Z M 153.933594 98.058594 C 148.972656 97.992188 144.390625 95.417969 141.742188 91.222656 C 139.96875 88.507812 139.027344 85.34375 139.054688 82.101562 L 139.054688 77.945312 C 139.015625 73.800781 140.585938 69.792969 143.398438 66.738281 L 143.574219 66.578125 C 148.910156 60.773438 157.941406 60.410156 163.730469 65.757812 C 164.019531 66.023438 164.292969 66.289062 164.546875 66.578125 C 167.433594 69.628906 169.027344 73.671875 168.992188 77.871094 L 168.992188 82.027344 C 169.003906 85.332031 168.023438 88.558594 166.179688 91.296875 C 163.515625 95.480469 158.90625 98.03125 153.933594 98.058594 " fill-opacity="1" fill-rule="nonzero"/></svg>