<svg xmlns="http://www.w3.org/2000/svg" xmlns:xlink="http://www.w3.org/1999/xlink" width="300" zoomAndPan="magnify" viewBox="0 0 224.87999 225" height="300" preserveAspectRatio="xMidYMid meet" version="1.0"><defs><clipPath id="3cd8c67c4f"><path d="M 0 0.0585938 L 224.761719 0.0585938 L 224.761719 224.9375 L 0 224.9375 Z M 0 0.0585938 " clip-rule="nonzero"/></clipPath><clipPath id="f214f34d2d"><path d="M 112.441406 0.0585938 C 50.339844 0.0585938 0 50.402344 0 112.5 C 0 174.597656 50.339844 224.941406 112.441406 224.941406 C 174.539062 224.941406 224.878906 174.597656 224.878906 112.5 C 224.878906 50.402344 174.539062 0.0585938 112.441406 0.0585938 " clip-rule="nonzero"/></clipPath><clipPath id="2771311d3f"><path d="M 56 44.398438 L 167 44.398438 L 167 101 L 56 101 Z M 56 44.398438 " clip-rule="nonzero"/></clipPath><clipPath id="6918385bee"><path d="M 56 137 L 167 137 L 167 175.578125 L 56 175.578125 Z M 56 137 " clip-rule="nonzero"/></clipPath><clipPath id="dc6d0f8b46"><path d="M 48.371094 131 L 75 131 L 75 142 L 48.371094 142 Z M 48.371094 131 " clip-rule="nonzero"/></clipPath><clipPath id="f3fe34bb3f"><path d="M 48.371094 104 L 75 104 L 75 116 L 48.371094 116 Z M 48.371094 104 " clip-rule="nonzero"/></clipPath><clipPath id="53b006417b"><path d="M 48.371094 78 L 75 78 L 75 90 L 48.371094 90 Z M 48.371094 78 " clip-rule="nonzero"/></clipPath><clipPath id="fd1bc5b7cd"><path d="M 165 109 L 190.796875 109 L 190.796875 135 L 165 135 Z M 165 109 " clip-rule="nonzero"/></clipPath></defs><g clip-path="url(#3cd8c67c4f)"><g clip-path="url(#f214f34d2d)"><path fill="#178429" d="M 0 0.0585938 L 224.878906 0.0585938 L 224.878906 224.941406 L 0 224.941406 Z M 0 0.0585938 " fill-opacity="1" fill-rule="nonzero"/></g></g><path fill="#ffffff" d="M 56.757812 104.324219 L 63.03125 104.324219 L 63.03125 89.753906 L 56.757812 89.753906 L 56.757812 104.324219 " fill-opacity="1" fill-rule="nonzero"/><path fill="#ffffff" d="M 56.757812 130.625 L 63.03125 130.625 L 63.03125 116.054688 L 56.757812 116.054688 L 56.757812 130.625 " fill-opacity="1" fill-rule="nonzero"/><g clip-path="url(#2771311d3f)"><path fill="#ffffff" d="M 166.921875 82.433594 L 166.921875 93.839844 C 164.816406 95.902344 162.710938 97.992188 160.621094 100.074219 L 160.621094 56.027344 C 160.621094 53.128906 158.277344 50.773438 155.371094 50.773438 L 68.296875 50.773438 C 65.390625 50.773438 63.046875 53.128906 63.046875 56.027344 L 63.046875 78.015625 L 56.773438 78.015625 L 56.773438 56.027344 C 56.773438 49.660156 61.9375 44.492188 68.296875 44.492188 L 155.371094 44.492188 C 161.730469 44.492188 166.894531 49.660156 166.894531 56.027344 L 166.894531 82.433594 L 166.921875 82.433594 " fill-opacity="1" fill-rule="nonzero"/></g><g clip-path="url(#6918385bee)"><path fill="#ffffff" d="M 163.589844 139.453125 C 164.65625 140.035156 165.765625 140.34375 166.921875 140.40625 L 166.921875 164.175781 C 166.921875 170.515625 161.730469 175.710938 155.371094 175.710938 L 68.296875 175.710938 C 61.9375 175.710938 56.773438 170.515625 56.773438 164.175781 L 56.773438 142.25 L 63.046875 142.25 L 63.046875 164.175781 C 63.046875 167.078125 65.390625 169.433594 68.296875 169.433594 L 155.371094 169.433594 C 158.277344 169.433594 160.648438 167.078125 160.648438 164.175781 L 160.648438 144.578125 L 160.621094 144.578125 L 160.621094 137.679688 L 161.019531 137.285156 C 161.6875 138.148438 162.550781 138.882812 163.589844 139.453125 " fill-opacity="1" fill-rule="nonzero"/></g><g clip-path="url(#dc6d0f8b46)"><path fill="#ffffff" d="M 64.457031 133.675781 L 51.164062 133.675781 C 49.65625 133.675781 48.441406 134.886719 48.441406 136.394531 C 48.441406 137.902344 49.65625 139.101562 51.164062 139.101562 L 64.457031 139.101562 C 65.382812 140.664062 67.082031 141.710938 69.027344 141.710938 C 71.960938 141.710938 74.351562 139.332031 74.351562 136.386719 C 74.351562 133.449219 71.960938 131.058594 69.027344 131.058594 C 67.082031 131.058594 65.382812 132.109375 64.457031 133.675781 " fill-opacity="1" fill-rule="nonzero"/></g><g clip-path="url(#f3fe34bb3f)"><path fill="#ffffff" d="M 64.464844 107.367188 L 51.164062 107.367188 C 49.65625 107.367188 48.441406 108.601562 48.441406 110.09375 C 48.441406 111.601562 49.65625 112.828125 51.164062 112.828125 L 64.464844 112.828125 C 65.398438 114.378906 67.089844 115.421875 69.027344 115.421875 C 71.960938 115.421875 74.351562 113.039062 74.351562 110.09375 C 74.351562 107.15625 71.960938 104.773438 69.027344 104.773438 C 67.089844 104.773438 65.398438 105.816406 64.464844 107.367188 " fill-opacity="1" fill-rule="nonzero"/></g><g clip-path="url(#53b006417b)"><path fill="#ffffff" d="M 64.457031 81.101562 L 51.164062 81.101562 C 49.65625 81.101562 48.441406 82.3125 48.441406 83.800781 C 48.441406 85.308594 49.65625 86.519531 51.164062 86.519531 L 64.457031 86.519531 C 65.382812 88.089844 67.082031 89.136719 69.027344 89.136719 C 71.960938 89.136719 74.351562 86.746094 74.351562 83.8125 C 74.351562 80.867188 71.960938 78.484375 69.027344 78.484375 C 67.082031 78.484375 65.382812 79.535156 64.457031 81.101562 " fill-opacity="1" fill-rule="nonzero"/></g><path fill="#ffffff" d="M 177.34375 113.039062 C 169.183594 121.222656 174.109375 116.1875 165.835938 124.460938 C 162.121094 120.667969 158.339844 117.476562 154.726562 113.789062 C 154.726562 113.761719 154.773438 113.613281 154.878906 113.496094 C 165.027344 103.363281 162.269531 106.160156 172.507812 96.105469 C 173.96875 94.648438 175.878906 93.511719 177.765625 92.628906 C 180.355469 91.386719 182.945312 92.226562 185.164062 94.492188 C 187.316406 96.660156 188.238281 99.167969 186.6875 101.945312 C 185.519531 104.027344 183.835938 105.824219 182.371094 107.738281 C 182.195312 107.976562 181.976562 108.199219 181.746094 108.445312 L 181.015625 109.175781 L 177.34375 113.039062 " fill-opacity="1" fill-rule="nonzero"/><g clip-path="url(#fd1bc5b7cd)"><path fill="#ffffff" d="M 189.351562 113.726562 C 186.953125 116.1875 184.539062 118.585938 182.125 121.03125 C 177.851562 125.308594 173.597656 129.613281 169.316406 133.890625 C 168.4375 134.78125 167.457031 135.246094 166.234375 134.585938 C 165.195312 134.003906 164.816406 133.035156 165.148438 131.941406 C 165.351562 131.339844 165.863281 130.8125 166.332031 130.34375 C 170.910156 125.703125 185.632812 110.929688 186.160156 110.417969 C 187.421875 109.203125 188.6875 109.175781 189.683594 110.269531 C 190.574219 111.195312 190.460938 112.570312 189.351562 113.726562 " fill-opacity="1" fill-rule="nonzero"/></g><path fill="#ffffff" d="M 149.539062 65.730469 C 149.539062 67.105469 148.4375 68.21875 147.054688 68.21875 L 87.222656 68.21875 C 85.847656 68.21875 84.746094 67.105469 84.746094 65.730469 C 84.746094 64.355469 85.847656 63.242188 87.222656 63.242188 L 147.054688 63.242188 C 148.4375 63.242188 149.539062 64.355469 149.539062 65.730469 " fill-opacity="1" fill-rule="nonzero"/><path fill="#ffffff" d="M 149.539062 87.914062 C 149.539062 89.289062 148.4375 90.398438 147.054688 90.398438 L 87.222656 90.398438 C 85.847656 90.398438 84.746094 89.289062 84.746094 87.914062 C 84.746094 86.546875 85.847656 85.433594 87.222656 85.433594 L 147.054688 85.433594 C 148.4375 85.433594 149.539062 86.546875 149.539062 87.914062 " fill-opacity="1" fill-rule="nonzero"/><path fill="#ffffff" d="M 149.488281 109.589844 C 148.492188 110.585938 147.496094 111.585938 146.5 112.589844 L 87.210938 112.589844 C 85.847656 112.589844 84.738281 111.476562 84.738281 110.101562 C 84.738281 108.726562 85.847656 107.617188 87.210938 107.617188 L 147.054688 107.617188 C 148.253906 107.617188 149.25 108.460938 149.488281 109.589844 " fill-opacity="1" fill-rule="nonzero"/><path fill="#ffffff" d="M 162.894531 127.503906 C 162.894531 127.503906 137.910156 152.976562 133.683594 155.839844 C 133.683594 155.839844 124.484375 162.605469 119.851562 162.339844 C 119.71875 162.386719 119.632812 162.402344 119.527344 162.386719 L 118.378906 163.601562 C 118.160156 163.847656 117.851562 163.957031 117.5625 163.957031 C 117.296875 163.957031 117.03125 163.875 116.8125 163.671875 C 116.363281 163.265625 116.320312 162.5625 116.742188 162.09375 L 117.789062 160.984375 C 117.703125 160.734375 117.65625 160.496094 117.640625 160.25 C 117.21875 155.613281 123.664062 146.210938 123.664062 146.210938 C 126.386719 141.878906 151.257812 116.320312 151.257812 116.320312 L 157.0625 121.851562 C 157.152344 121.851562 162.894531 127.503906 162.894531 127.503906 " fill-opacity="1" fill-rule="nonzero"/></svg>