<svg xmlns="http://www.w3.org/2000/svg" xmlns:xlink="http://www.w3.org/1999/xlink" width="300" zoomAndPan="magnify" viewBox="0 0 224.87999 225" height="300" preserveAspectRatio="xMidYMid meet" version="1.0"><defs><clipPath id="3fb1fa34f1"><path d="M 0 0.0585938 L 224.761719 0.0585938 L 224.761719 224.9375 L 0 224.9375 Z M 0 0.0585938 " clip-rule="nonzero"/></clipPath><clipPath id="49d2be9d31"><path d="M 112.441406 0.0585938 C 50.339844 0.0585938 0 50.402344 0 112.5 C 0 174.597656 50.339844 224.941406 112.441406 224.941406 C 174.539062 224.941406 224.878906 174.597656 224.878906 112.5 C 224.878906 50.402344 174.539062 0.0585938 112.441406 0.0585938 " clip-rule="nonzero"/></clipPath><clipPath id="e40dc87599"><path d="M 147 135 L 181.59375 135 L 181.59375 171 L 147 171 Z M 147 135 " clip-rule="nonzero"/></clipPath><clipPath id="5bbc3cf91d"><path d="M 42.917969 116 L 86 116 L 86 153 L 42.917969 153 Z M 42.917969 116 " clip-rule="nonzero"/></clipPath></defs><g clip-path="url(#3fb1fa34f1)"><g clip-path="url(#49d2be9d31)"><path fill="#178429" d="M 0 0.0585938 L 224.878906 0.0585938 L 224.878906 224.941406 L 0 224.941406 Z M 0 0.0585938 " fill-opacity="1" fill-rule="nonzero"/></g></g><path fill="#ffffff" d="M 162.300781 125.894531 C 161.246094 125.894531 160.382812 125.035156 160.382812 123.976562 L 160.382812 44.910156 L 89.351562 44.910156 L 66.039062 68.246094 L 66.039062 85.222656 C 66.039062 86.28125 65.179688 87.136719 64.121094 87.136719 C 63.066406 87.136719 62.210938 86.28125 62.210938 85.222656 L 62.210938 67.449219 C 62.210938 66.9375 62.410156 66.457031 62.769531 66.097656 L 87.207031 41.636719 C 87.566406 41.277344 88.054688 41.074219 88.558594 41.074219 L 162.300781 41.074219 C 163.355469 41.074219 164.210938 41.929688 164.210938 42.992188 L 164.210938 123.976562 C 164.210938 125.03125 163.355469 125.890625 162.300781 125.890625 " fill-opacity="1" fill-rule="nonzero"/><path fill="#ffffff" d="M 162.300781 183.960938 L 81.042969 183.960938 C 79.984375 183.960938 79.125 183.101562 79.125 182.042969 C 79.125 180.988281 79.984375 180.125 81.042969 180.125 L 160.382812 180.125 L 160.382812 169.628906 C 160.382812 168.570312 161.246094 167.707031 162.300781 167.707031 C 163.355469 167.707031 164.210938 168.570312 164.210938 169.628906 L 164.210938 182.042969 C 164.210938 183.101562 163.355469 183.960938 162.300781 183.960938 " fill-opacity="1" fill-rule="nonzero"/><path fill="#ffffff" d="M 64.121094 69.367188 C 63.632812 69.367188 63.144531 69.179688 62.769531 68.804688 C 62.019531 68.058594 62.019531 66.847656 62.769531 66.097656 L 87.207031 41.625 C 87.957031 40.875 89.167969 40.875 89.917969 41.625 C 90.660156 42.371094 90.660156 43.585938 89.917969 44.335938 L 65.476562 68.804688 C 65.101562 69.179688 64.613281 69.367188 64.121094 69.367188 " fill-opacity="1" fill-rule="nonzero"/><path fill="#ffffff" d="M 88.558594 69.40625 L 64.117188 69.367188 C 63.0625 69.367188 62.207031 68.507812 62.210938 67.449219 C 62.210938 66.390625 63.066406 65.535156 64.121094 65.535156 L 64.128906 65.535156 L 86.648438 65.570312 L 86.648438 42.980469 C 86.648438 41.921875 87.503906 41.0625 88.558594 41.0625 C 89.621094 41.0625 90.476562 41.921875 90.476562 42.980469 L 90.476562 67.488281 C 90.476562 67.996094 90.273438 68.484375 89.910156 68.84375 C 89.550781 69.199219 89.070312 69.40625 88.558594 69.40625 " fill-opacity="1" fill-rule="nonzero"/><path fill="#ffffff" d="M 147.429688 71.296875 L 106.230469 71.296875 C 105.175781 71.296875 104.320312 70.4375 104.320312 69.375 C 104.320312 68.320312 105.175781 67.460938 106.230469 67.460938 L 147.429688 67.460938 C 148.488281 67.460938 149.34375 68.320312 149.34375 69.375 C 149.34375 70.4375 148.488281 71.296875 147.429688 71.296875 " fill-opacity="1" fill-rule="nonzero"/><path fill="#ffffff" d="M 147.429688 88.546875 L 78.992188 88.546875 C 77.9375 88.546875 77.082031 87.695312 77.082031 86.632812 C 77.082031 85.574219 77.9375 84.714844 78.992188 84.714844 L 147.429688 84.714844 C 148.488281 84.714844 149.34375 85.574219 149.34375 86.632812 C 149.34375 87.695312 148.488281 88.546875 147.429688 88.546875 " fill-opacity="1" fill-rule="nonzero"/><path fill="#ffffff" d="M 141.425781 105.800781 L 120.8125 105.800781 C 119.757812 105.800781 118.902344 104.945312 118.902344 103.886719 C 118.902344 102.824219 119.757812 101.964844 120.8125 101.964844 L 141.425781 101.964844 C 142.480469 101.964844 143.34375 102.824219 143.34375 103.886719 C 143.34375 104.945312 142.480469 105.800781 141.425781 105.800781 " fill-opacity="1" fill-rule="nonzero"/><path fill="#ffffff" d="M 96.242188 105.800781 L 78.992188 105.800781 C 77.9375 105.800781 77.082031 104.945312 77.082031 103.886719 C 77.082031 102.824219 77.9375 101.964844 78.992188 101.964844 L 96.242188 101.964844 C 97.300781 101.964844 98.152344 102.824219 98.152344 103.886719 C 98.152344 104.945312 97.300781 105.800781 96.242188 105.800781 " fill-opacity="1" fill-rule="nonzero"/><path fill="#ffffff" d="M 147.429688 123.058594 L 113.210938 123.058594 C 112.152344 123.058594 111.296875 122.199219 111.296875 121.136719 C 111.296875 120.078125 112.152344 119.222656 113.210938 119.222656 L 147.429688 119.222656 C 148.488281 119.222656 149.34375 120.078125 149.34375 121.136719 C 149.34375 122.199219 148.488281 123.058594 147.429688 123.058594 " fill-opacity="1" fill-rule="nonzero"/><path fill="#ffffff" d="M 91.882812 123.058594 L 88.558594 123.058594 C 87.503906 123.058594 86.648438 122.199219 86.648438 121.136719 C 86.648438 120.078125 87.503906 119.222656 88.558594 119.222656 L 91.882812 119.222656 C 92.9375 119.222656 93.792969 120.078125 93.792969 121.136719 C 93.792969 122.199219 92.9375 123.058594 91.882812 123.058594 " fill-opacity="1" fill-rule="nonzero"/><path fill="#ffffff" d="M 135.480469 140.308594 L 126.828125 140.308594 C 125.773438 140.308594 124.917969 139.449219 124.917969 138.390625 C 124.917969 137.328125 125.773438 136.476562 126.828125 136.476562 L 135.480469 136.476562 C 136.539062 136.476562 137.390625 137.328125 137.390625 138.390625 C 137.390625 139.449219 136.539062 140.308594 135.480469 140.308594 " fill-opacity="1" fill-rule="nonzero"/><path fill="#ffffff" d="M 102.914062 140.308594 L 88.558594 140.308594 C 87.503906 140.308594 86.648438 139.449219 86.648438 138.390625 C 86.648438 137.328125 87.503906 136.476562 88.558594 136.476562 L 102.914062 136.476562 C 103.96875 136.476562 104.824219 137.328125 104.824219 138.390625 C 104.824219 139.449219 103.96875 140.308594 102.914062 140.308594 " fill-opacity="1" fill-rule="nonzero"/><path fill="#ffffff" d="M 147.429688 157.5625 L 83.410156 157.5625 C 82.355469 157.5625 81.5 156.703125 81.5 155.648438 C 81.5 154.585938 82.355469 153.726562 83.410156 153.726562 L 147.429688 153.726562 C 148.488281 153.726562 149.34375 154.585938 149.34375 155.648438 C 149.34375 156.703125 148.488281 157.5625 147.429688 157.5625 " fill-opacity="1" fill-rule="nonzero"/><g clip-path="url(#e40dc87599)"><path fill="#ffffff" d="M 151.519531 145.066406 L 171.808594 165.382812 C 173.121094 166.703125 175.417969 166.707031 176.738281 165.382812 C 177.398438 164.726562 177.757812 163.847656 177.757812 162.917969 C 177.757812 161.980469 177.398438 161.109375 176.738281 160.445312 L 156.453125 140.132812 Z M 174.273438 170.242188 C 172.320312 170.242188 170.480469 169.480469 169.097656 168.097656 L 148.195312 147.160156 C 147.042969 146.003906 147.042969 144.132812 148.191406 142.976562 L 154.363281 136.796875 C 155.511719 135.644531 157.386719 135.644531 158.539062 136.796875 L 179.449219 157.738281 C 180.828125 159.121094 181.589844 160.957031 181.589844 162.917969 C 181.589844 164.871094 180.828125 166.714844 179.449219 168.097656 C 178.0625 169.480469 176.226562 170.242188 174.273438 170.242188 " fill-opacity="1" fill-rule="nonzero"/></g><path fill="#ffffff" d="M 150.21875 145.578125 C 149.707031 145.578125 149.222656 145.375 148.859375 145.015625 L 144.191406 140.339844 C 143.445312 139.589844 143.445312 138.378906 144.191406 137.625 C 144.9375 136.875 146.152344 136.875 146.898438 137.625 L 150.21875 140.949219 L 152.339844 138.824219 L 149.023438 135.503906 C 148.273438 134.75 148.273438 133.542969 149.023438 132.792969 C 149.765625 132.042969 150.984375 132.042969 151.726562 132.792969 L 156.398438 137.464844 C 156.757812 137.828125 156.960938 138.3125 156.960938 138.824219 C 156.960938 139.332031 156.757812 139.820312 156.398438 140.179688 L 151.570312 145.015625 C 151.210938 145.375 150.722656 145.578125 150.21875 145.578125 " fill-opacity="1" fill-rule="nonzero"/><path fill="#ffffff" d="M 130.140625 95.144531 C 123.851562 95.144531 117.9375 97.59375 113.492188 102.050781 C 109.042969 106.5 106.597656 112.421875 106.597656 118.71875 C 106.597656 125.015625 109.042969 130.9375 113.492188 135.390625 C 117.9375 139.84375 123.851562 142.296875 130.140625 142.296875 C 136.429688 142.296875 142.339844 139.84375 146.789062 135.390625 C 151.234375 130.9375 153.683594 125.015625 153.683594 118.71875 C 153.683594 112.421875 151.234375 106.5 146.789062 102.050781 C 142.339844 97.59375 136.429688 95.144531 130.140625 95.144531 Z M 130.140625 146.128906 C 122.828125 146.128906 115.957031 143.28125 110.785156 138.105469 C 105.617188 132.925781 102.765625 126.042969 102.765625 118.71875 C 102.765625 111.394531 105.617188 104.515625 110.785156 99.335938 C 115.957031 94.160156 122.828125 91.308594 130.140625 91.308594 C 137.449219 91.308594 144.324219 94.160156 149.492188 99.335938 C 154.660156 104.515625 157.511719 111.394531 157.511719 118.71875 C 157.511719 126.042969 154.660156 132.925781 149.492188 138.105469 C 144.324219 143.28125 137.449219 146.128906 130.140625 146.128906 " fill-opacity="1" fill-rule="nonzero"/><path fill="#ffffff" d="M 64.121094 91.78125 C 60.34375 91.78125 57.261719 95.839844 57.261719 100.820312 C 57.261719 105.800781 60.34375 109.859375 64.121094 109.859375 C 67.910156 109.859375 70.984375 105.800781 70.984375 100.820312 C 70.984375 95.839844 67.910156 91.78125 64.121094 91.78125 Z M 64.121094 113.695312 C 58.230469 113.695312 53.433594 107.917969 53.433594 100.820312 C 53.433594 93.726562 58.230469 87.953125 64.121094 87.953125 C 70.015625 87.953125 74.8125 93.726562 74.8125 100.820312 C 74.8125 107.917969 70.015625 113.695312 64.121094 113.695312 " fill-opacity="1" fill-rule="nonzero"/><g clip-path="url(#5bbc3cf91d)"><path fill="#ffffff" d="M 74.695312 152.976562 C 73.933594 152.976562 73.210938 152.519531 72.914062 151.761719 C 72.527344 150.777344 73.007812 149.667969 73.992188 149.277344 C 78.550781 147.464844 81.5 143.125 81.5 138.210938 L 81.5 131.785156 C 81.5 125.226562 76.171875 119.882812 69.617188 119.882812 L 58.628906 119.882812 C 52.078125 119.882812 46.75 125.226562 46.75 131.785156 L 46.75 138.210938 C 46.75 143.125 49.699219 147.464844 54.253906 149.277344 C 55.238281 149.667969 55.722656 150.777344 55.335938 151.761719 C 54.941406 152.746094 53.832031 153.230469 52.847656 152.839844 C 46.816406 150.449219 42.921875 144.707031 42.921875 138.210938 L 42.921875 131.785156 C 42.921875 123.109375 49.96875 116.054688 58.628906 116.054688 L 69.617188 116.054688 C 78.277344 116.054688 85.324219 123.109375 85.324219 131.785156 L 85.324219 138.210938 C 85.324219 144.707031 81.429688 150.449219 75.398438 152.839844 C 75.167969 152.933594 74.929688 152.976562 74.695312 152.976562 " fill-opacity="1" fill-rule="nonzero"/></g><path fill="#ffffff" d="M 64.121094 178.234375 C 63.066406 178.234375 62.210938 177.375 62.210938 176.316406 L 62.210938 151.0625 C 62.210938 150 63.066406 149.140625 64.121094 149.140625 C 65.179688 149.140625 66.039062 150 66.039062 151.0625 L 66.039062 176.316406 C 66.039062 177.375 65.179688 178.234375 64.121094 178.234375 " fill-opacity="1" fill-rule="nonzero"/><path fill="#ffffff" d="M 59.355469 180.351562 C 56.542969 180.351562 54.011719 178.964844 52.625 177.769531 C 52.203125 177.40625 51.957031 176.875 51.957031 176.316406 L 51.957031 129.636719 C 51.957031 128.578125 52.816406 127.71875 53.875 127.71875 C 54.929688 127.71875 55.789062 128.578125 55.789062 129.636719 L 55.789062 175.355469 C 57.117188 176.226562 60.109375 177.625 62.769531 174.964844 C 63.484375 174.242188 64.761719 174.242188 65.476562 174.964844 C 68.136719 177.625 71.148438 176.203125 72.457031 175.355469 L 72.457031 129.636719 C 72.457031 128.578125 73.320312 127.71875 74.375 127.71875 C 75.429688 127.71875 76.289062 128.578125 76.289062 129.636719 L 76.289062 176.316406 C 76.289062 176.875 76.042969 177.40625 75.621094 177.769531 C 73.476562 179.621094 68.558594 181.941406 64.121094 178.816406 C 62.546875 179.929688 60.90625 180.347656 59.355469 180.351562 " fill-opacity="1" fill-rule="nonzero"/></svg>