<svg xmlns="http://www.w3.org/2000/svg" xmlns:xlink="http://www.w3.org/1999/xlink" width="300" zoomAndPan="magnify" viewBox="0 0 224.87999 225" height="300" preserveAspectRatio="xMidYMid meet" version="1.0"><defs><clipPath id="bea4178a1d"><path d="M 0 0.0585938 L 224.761719 0.0585938 L 224.761719 224.9375 L 0 224.9375 Z M 0 0.0585938 " clip-rule="nonzero"/></clipPath><clipPath id="24cc53c7fd"><path d="M 112.441406 0.0585938 C 50.339844 0.0585938 0 50.402344 0 112.5 C 0 174.597656 50.339844 224.941406 112.441406 224.941406 C 174.539062 224.941406 224.878906 174.597656 224.878906 112.5 C 224.878906 50.402344 174.539062 0.0585938 112.441406 0.0585938 " clip-rule="nonzero"/></clipPath><clipPath id="cb8a1ccc15"><path d="M 82 41 L 183.941406 41 L 183.941406 143 L 82 143 Z M 82 41 " clip-rule="nonzero"/></clipPath><clipPath id="8e90cb08a1"><path d="M 40.765625 153 L 107 153 L 107 184 L 40.765625 184 Z M 40.765625 153 " clip-rule="nonzero"/></clipPath></defs><g clip-path="url(#bea4178a1d)"><g clip-path="url(#24cc53c7fd)"><path fill="#178429" d="M 0 0.0585938 L 224.878906 0.0585938 L 224.878906 224.941406 L 0 224.941406 Z M 0 0.0585938 " fill-opacity="1" fill-rule="nonzero"/></g></g><path fill="#ffffff" d="M 67.214844 132.121094 C 67.214844 131.785156 67.148438 131.460938 67.019531 131.148438 C 66.890625 130.839844 66.707031 130.5625 66.46875 130.324219 C 66.230469 130.085938 65.957031 129.902344 65.644531 129.773438 C 65.332031 129.644531 65.007812 129.578125 64.671875 129.578125 C 64.335938 129.578125 64.011719 129.644531 63.699219 129.773438 C 63.386719 129.902344 63.113281 130.085938 62.875 130.324219 C 62.636719 130.5625 62.453125 130.839844 62.320312 131.148438 C 62.191406 131.460938 62.128906 131.785156 62.128906 132.121094 C 62.128906 132.78125 62.1875 133.4375 62.296875 134.085938 C 62.410156 134.738281 62.578125 135.375 62.796875 135.996094 C 63.015625 136.617188 63.285156 137.214844 63.605469 137.792969 C 63.925781 138.371094 64.292969 138.914062 64.707031 139.429688 C 65.121094 139.945312 65.574219 140.417969 66.066406 140.855469 C 66.558594 141.292969 67.085938 141.6875 67.648438 142.035156 C 68.207031 142.386719 68.792969 142.683594 69.402344 142.933594 C 70.011719 143.183594 70.640625 143.378906 71.285156 143.523438 L 71.285156 145.855469 C 71.285156 146.191406 71.347656 146.515625 71.476562 146.828125 C 71.605469 147.140625 71.789062 147.414062 72.027344 147.652344 C 72.265625 147.890625 72.542969 148.074219 72.855469 148.203125 C 73.164062 148.332031 73.488281 148.398438 73.828125 148.398438 C 74.164062 148.398438 74.488281 148.332031 74.800781 148.203125 C 75.113281 148.074219 75.386719 147.890625 75.625 147.652344 C 75.863281 147.414062 76.046875 147.140625 76.175781 146.828125 C 76.304688 146.515625 76.371094 146.191406 76.371094 145.855469 L 76.371094 143.523438 C 77.007812 143.375 77.632812 143.175781 78.238281 142.921875 C 78.84375 142.671875 79.425781 142.367188 79.980469 142.015625 C 80.535156 141.667969 81.054688 141.273438 81.546875 140.832031 C 82.035156 140.394531 82.480469 139.917969 82.890625 139.40625 C 83.300781 138.890625 83.660156 138.347656 83.980469 137.773438 C 84.296875 137.195312 84.5625 136.597656 84.777344 135.980469 C 84.996094 135.359375 85.15625 134.726562 85.269531 134.078125 C 85.378906 133.429688 85.433594 132.78125 85.433594 132.121094 C 85.433594 131.464844 85.378906 130.816406 85.269531 130.167969 C 85.15625 129.519531 84.996094 128.886719 84.777344 128.265625 C 84.5625 127.644531 84.296875 127.050781 83.980469 126.472656 C 83.660156 125.898438 83.300781 125.355469 82.890625 124.839844 C 82.480469 124.328125 82.035156 123.851562 81.542969 123.410156 C 81.054688 122.972656 80.535156 122.578125 79.980469 122.226562 C 79.425781 121.878906 78.84375 121.574219 78.238281 121.324219 C 77.632812 121.070312 77.007812 120.871094 76.371094 120.722656 L 76.371094 107.710938 C 76.972656 107.964844 77.523438 108.296875 78.027344 108.710938 C 78.53125 109.125 78.964844 109.605469 79.328125 110.148438 C 79.6875 110.691406 79.964844 111.273438 80.152344 111.898438 C 80.34375 112.523438 80.4375 113.160156 80.4375 113.8125 C 80.445312 114.144531 80.515625 114.464844 80.644531 114.769531 C 80.777344 115.078125 80.964844 115.347656 81.199219 115.578125 C 81.4375 115.8125 81.710938 115.992188 82.019531 116.117188 C 82.328125 116.246094 82.648438 116.308594 82.980469 116.308594 C 83.316406 116.308594 83.636719 116.246094 83.945312 116.117188 C 84.253906 115.992188 84.527344 115.8125 84.761719 115.578125 C 85 115.347656 85.1875 115.078125 85.316406 114.769531 C 85.449219 114.464844 85.519531 114.144531 85.523438 113.8125 C 85.523438 113.152344 85.46875 112.496094 85.355469 111.847656 C 85.242188 111.199219 85.078125 110.5625 84.859375 109.941406 C 84.636719 109.316406 84.367188 108.71875 84.046875 108.140625 C 83.726562 107.566406 83.359375 107.019531 82.945312 106.507812 C 82.535156 105.992188 82.082031 105.515625 81.585938 105.078125 C 81.09375 104.640625 80.566406 104.246094 80.007812 103.898438 C 79.445312 103.550781 78.863281 103.25 78.25 103 C 77.640625 102.75 77.011719 102.554688 76.371094 102.410156 L 76.371094 100.082031 C 76.371094 99.742188 76.304688 99.417969 76.175781 99.105469 C 76.046875 98.796875 75.863281 98.519531 75.625 98.28125 C 75.386719 98.042969 75.113281 97.859375 74.800781 97.730469 C 74.488281 97.601562 74.164062 97.539062 73.828125 97.539062 C 73.488281 97.539062 73.164062 97.601562 72.855469 97.730469 C 72.542969 97.859375 72.265625 98.042969 72.027344 98.28125 C 71.789062 98.519531 71.605469 98.796875 71.476562 99.105469 C 71.347656 99.417969 71.285156 99.742188 71.285156 100.082031 L 71.285156 102.410156 C 70.644531 102.558594 70.023438 102.757812 69.414062 103.011719 C 68.808594 103.265625 68.230469 103.566406 67.675781 103.917969 C 67.121094 104.269531 66.597656 104.664062 66.109375 105.101562 C 65.621094 105.539062 65.171875 106.015625 64.761719 106.53125 C 64.355469 107.042969 63.992188 107.589844 63.675781 108.164062 C 63.359375 108.738281 63.089844 109.335938 62.875 109.957031 C 62.660156 110.574219 62.496094 111.210938 62.386719 111.855469 C 62.277344 112.503906 62.222656 113.15625 62.222656 113.8125 C 62.222656 114.46875 62.277344 115.121094 62.386719 115.769531 C 62.496094 116.414062 62.660156 117.050781 62.875 117.667969 C 63.089844 118.289062 63.359375 118.886719 63.675781 119.460938 C 63.992188 120.035156 64.355469 120.582031 64.761719 121.09375 C 65.171875 121.609375 65.621094 122.085938 66.109375 122.523438 C 66.597656 122.960938 67.121094 123.355469 67.675781 123.707031 C 68.230469 124.058594 68.808594 124.359375 69.414062 124.613281 C 70.023438 124.867188 70.644531 125.066406 71.285156 125.214844 L 71.285156 138.222656 C 70.683594 137.972656 70.128906 137.640625 69.625 137.222656 C 69.121094 136.808594 68.6875 136.332031 68.328125 135.789062 C 67.964844 135.246094 67.691406 134.660156 67.5 134.039062 C 67.3125 133.414062 67.214844 132.773438 67.214844 132.121094 Z M 80.4375 132.121094 C 80.4375 132.773438 80.34375 133.414062 80.152344 134.039062 C 79.964844 134.660156 79.6875 135.246094 79.328125 135.789062 C 78.964844 136.332031 78.53125 136.808594 78.027344 137.222656 C 77.523438 137.640625 76.972656 137.972656 76.371094 138.222656 L 76.371094 126.023438 C 76.972656 126.273438 77.523438 126.605469 78.027344 127.023438 C 78.53125 127.4375 78.964844 127.914062 79.328125 128.457031 C 79.6875 129 79.964844 129.582031 80.152344 130.207031 C 80.34375 130.832031 80.4375 131.46875 80.4375 132.121094 Z M 67.214844 113.8125 C 67.214844 113.160156 67.3125 112.523438 67.5 111.898438 C 67.691406 111.273438 67.964844 110.691406 68.328125 110.148438 C 68.6875 109.605469 69.121094 109.125 69.625 108.710938 C 70.128906 108.296875 70.683594 107.964844 71.285156 107.710938 L 71.285156 119.914062 C 70.683594 119.660156 70.128906 119.328125 69.625 118.914062 C 69.121094 118.5 68.6875 118.019531 68.328125 117.476562 C 67.964844 116.933594 67.691406 116.351562 67.5 115.726562 C 67.3125 115.101562 67.214844 114.464844 67.214844 113.8125 Z M 67.214844 113.8125 " fill-opacity="1" fill-rule="nonzero"/><g clip-path="url(#cb8a1ccc15)"><path fill="#ffffff" d="M 104.640625 113.953125 C 104.976562 114.289062 105.339844 114.589844 105.730469 114.859375 C 106.121094 115.125 106.53125 115.355469 106.964844 115.546875 C 107.398438 115.738281 107.847656 115.886719 108.308594 115.996094 C 108.769531 116.101562 109.238281 116.164062 109.710938 116.1875 C 110.183594 116.207031 110.65625 116.183594 111.125 116.113281 C 111.59375 116.046875 112.054688 115.9375 112.5 115.78125 C 112.949219 115.628906 113.378906 115.4375 113.792969 115.203125 C 114.203125 114.96875 114.589844 114.699219 114.953125 114.394531 C 115.316406 114.085938 115.644531 113.75 115.945312 113.382812 C 116.246094 113.015625 116.507812 112.625 116.734375 112.207031 C 116.960938 111.789062 117.144531 111.355469 117.289062 110.90625 C 117.433594 110.453125 117.535156 109.996094 117.597656 109.523438 C 117.65625 109.054688 117.671875 108.582031 117.640625 108.109375 C 117.613281 107.636719 117.539062 107.171875 117.425781 106.710938 C 117.308594 106.25 117.152344 105.808594 116.953125 105.375 C 116.753906 104.945312 116.515625 104.539062 116.242188 104.152344 L 125.320312 95.074219 L 132.515625 102.265625 C 132.253906 102.492188 132.042969 102.757812 131.890625 103.0625 C 131.734375 103.371094 131.648438 103.695312 131.625 104.039062 C 131.597656 104.382812 131.644531 104.71875 131.753906 105.042969 C 131.867188 105.371094 132.035156 105.660156 132.265625 105.917969 L 161.003906 137.921875 C 161.582031 138.5625 162.214844 139.140625 162.910156 139.65625 C 163.605469 140.167969 164.34375 140.605469 165.128906 140.96875 C 165.914062 141.328125 166.726562 141.609375 167.566406 141.804688 C 168.40625 142 169.257812 142.113281 170.121094 142.132812 C 170.984375 142.15625 171.839844 142.09375 172.691406 141.941406 C 173.542969 141.789062 174.367188 141.554688 175.167969 141.234375 C 175.972656 140.914062 176.734375 140.519531 177.453125 140.042969 C 178.175781 139.570312 178.839844 139.027344 179.453125 138.414062 C 180.0625 137.804688 180.605469 137.140625 181.082031 136.417969 C 181.554688 135.695312 181.953125 134.933594 182.273438 134.132812 C 182.59375 133.332031 182.828125 132.503906 182.980469 131.65625 C 183.128906 130.804688 183.195312 129.949219 183.171875 129.085938 C 183.148438 128.222656 183.039062 127.371094 182.839844 126.527344 C 182.644531 125.6875 182.367188 124.875 182.003906 124.09375 C 181.640625 123.308594 181.203125 122.570312 180.691406 121.875 C 180.179688 121.179688 179.601562 120.542969 178.957031 119.964844 L 146.957031 91.226562 C 146.699219 91 146.40625 90.828125 146.082031 90.71875 C 145.753906 90.609375 145.421875 90.5625 145.078125 90.585938 C 144.734375 90.609375 144.410156 90.699219 144.101562 90.855469 C 143.792969 91.007812 143.527344 91.214844 143.304688 91.476562 L 136.109375 84.285156 L 145.191406 75.203125 C 145.578125 75.46875 145.988281 75.699219 146.414062 75.890625 C 146.84375 76.082031 147.289062 76.234375 147.746094 76.34375 C 148.203125 76.457031 148.664062 76.523438 149.132812 76.546875 C 149.601562 76.574219 150.070312 76.554688 150.535156 76.492188 C 151.003906 76.429688 151.457031 76.328125 151.90625 76.179688 C 152.351562 76.035156 152.78125 75.847656 153.195312 75.621094 C 153.605469 75.398438 153.996094 75.136719 154.359375 74.839844 C 154.722656 74.542969 155.054688 74.214844 155.359375 73.855469 C 155.664062 73.496094 155.929688 73.109375 156.164062 72.703125 C 156.394531 72.292969 156.589844 71.867188 156.742188 71.421875 C 156.894531 70.980469 157.007812 70.523438 157.078125 70.058594 C 157.148438 69.59375 157.171875 69.128906 157.15625 68.65625 C 157.140625 68.1875 157.078125 67.722656 156.976562 67.265625 C 156.875 66.808594 156.730469 66.363281 156.546875 65.929688 C 156.359375 65.496094 156.136719 65.085938 155.875 64.695312 C 155.613281 64.304688 155.320312 63.941406 154.992188 63.605469 L 135.210938 43.824219 C 134.875 43.496094 134.511719 43.203125 134.121094 42.941406 C 133.730469 42.679688 133.316406 42.457031 132.886719 42.273438 C 132.453125 42.085938 132.007812 41.941406 131.550781 41.839844 C 131.089844 41.738281 130.625 41.675781 130.15625 41.660156 C 129.6875 41.644531 129.21875 41.671875 128.753906 41.738281 C 128.289062 41.808594 127.835938 41.921875 127.390625 42.074219 C 126.945312 42.226562 126.519531 42.421875 126.109375 42.652344 C 125.703125 42.886719 125.320312 43.152344 124.960938 43.457031 C 124.601562 43.761719 124.273438 44.09375 123.976562 44.457031 C 123.675781 44.824219 123.414062 45.210938 123.191406 45.625 C 122.964844 46.035156 122.777344 46.464844 122.632812 46.914062 C 122.488281 47.359375 122.382812 47.816406 122.320312 48.28125 C 122.257812 48.746094 122.242188 49.214844 122.265625 49.683594 C 122.289062 50.152344 122.355469 50.617188 122.46875 51.074219 C 122.578125 51.53125 122.730469 51.972656 122.921875 52.402344 C 123.113281 52.832031 123.34375 53.238281 123.609375 53.625 L 94.660156 82.578125 C 94.277344 82.300781 93.867188 82.066406 93.4375 81.867188 C 93.007812 81.667969 92.5625 81.507812 92.105469 81.394531 C 91.644531 81.277344 91.179688 81.207031 90.707031 81.175781 C 90.230469 81.148438 89.761719 81.164062 89.289062 81.222656 C 88.820312 81.28125 88.359375 81.382812 87.910156 81.527344 C 87.457031 81.671875 87.023438 81.859375 86.609375 82.085938 C 86.191406 82.308594 85.800781 82.574219 85.433594 82.871094 C 85.0625 83.171875 84.726562 83.5 84.421875 83.863281 C 84.117188 84.226562 83.847656 84.613281 83.613281 85.023438 C 83.378906 85.4375 83.1875 85.867188 83.03125 86.316406 C 82.878906 86.765625 82.769531 87.222656 82.699219 87.691406 C 82.632812 88.160156 82.609375 88.632812 82.628906 89.105469 C 82.648438 89.578125 82.714844 90.046875 82.820312 90.507812 C 82.929688 90.96875 83.078125 91.417969 83.269531 91.851562 C 83.460938 92.285156 83.6875 92.695312 83.957031 93.085938 C 84.226562 93.476562 84.527344 93.839844 84.863281 94.175781 Z M 175.5625 123.75 C 176.128906 124.277344 176.605469 124.878906 176.992188 125.550781 C 177.378906 126.21875 177.660156 126.933594 177.828125 127.691406 C 178 128.445312 178.054688 129.210938 177.992188 129.984375 C 177.933594 130.753906 177.757812 131.5 177.46875 132.222656 C 177.183594 132.941406 176.796875 133.601562 176.308594 134.203125 C 175.820312 134.808594 175.253906 135.324219 174.613281 135.753906 C 173.96875 136.1875 173.273438 136.511719 172.53125 136.734375 C 171.789062 136.953125 171.03125 137.058594 170.253906 137.050781 C 169.207031 137.027344 168.210938 136.796875 167.257812 136.355469 C 166.308594 135.917969 165.484375 135.304688 164.789062 134.523438 L 137.660156 104.3125 L 145.351562 96.625 Z M 139.707031 95.074219 L 136.109375 98.671875 L 128.917969 91.476562 L 132.515625 87.878906 Z M 130.714844 82.484375 C 126.496094 86.71875 117.027344 96.164062 112.734375 100.46875 L 98.347656 86.082031 L 127.117188 57.308594 L 141.503906 71.695312 Z M 128.019531 47.421875 C 128.257812 47.183594 128.53125 47 128.84375 46.871094 C 129.15625 46.742188 129.480469 46.675781 129.816406 46.675781 C 130.152344 46.675781 130.476562 46.742188 130.789062 46.871094 C 131.101562 47 131.375 47.183594 131.617188 47.421875 L 151.394531 67.199219 C 151.625 67.441406 151.800781 67.714844 151.925781 68.023438 C 152.046875 68.335938 152.105469 68.65625 152.105469 68.988281 C 152.101562 69.320312 152.035156 69.640625 151.90625 69.949219 C 151.777344 70.253906 151.59375 70.527344 151.359375 70.761719 C 151.125 70.996094 150.851562 71.179688 150.546875 71.308594 C 150.238281 71.4375 149.917969 71.503906 149.585938 71.507812 C 149.253906 71.507812 148.933594 71.449219 148.625 71.328125 C 148.3125 71.203125 148.039062 71.027344 147.796875 70.796875 L 128.917969 51.917969 C 127.484375 50.769531 126.527344 48.972656 128.019531 47.421875 Z M 88.457031 86.984375 C 88.695312 86.746094 88.972656 86.5625 89.285156 86.433594 C 89.59375 86.304688 89.917969 86.238281 90.257812 86.238281 C 90.59375 86.238281 90.917969 86.304688 91.230469 86.429688 C 91.542969 86.558594 91.816406 86.742188 92.054688 86.980469 L 111.835938 106.761719 C 112.070312 107.003906 112.253906 107.277344 112.382812 107.589844 C 112.511719 107.898438 112.574219 108.222656 112.574219 108.558594 C 112.574219 108.898438 112.511719 109.21875 112.382812 109.53125 C 112.253906 109.84375 112.070312 110.117188 111.835938 110.355469 C 111.59375 110.589844 111.316406 110.765625 111.003906 110.890625 C 110.695312 111.015625 110.371094 111.078125 110.035156 111.078125 C 109.703125 111.078125 109.378906 111.015625 109.066406 110.890625 C 108.757812 110.765625 108.480469 110.589844 108.238281 110.359375 L 88.457031 90.578125 C 88.21875 90.339844 88.035156 90.066406 87.90625 89.753906 C 87.78125 89.441406 87.714844 89.117188 87.714844 88.78125 C 87.714844 88.445312 87.78125 88.121094 87.90625 87.808594 C 88.035156 87.496094 88.21875 87.222656 88.457031 86.984375 Z M 88.457031 86.984375 " fill-opacity="1" fill-rule="nonzero"/></g><g clip-path="url(#8e90cb08a1)"><path fill="#ffffff" d="M 43.308594 184 L 104.34375 184 C 104.679688 184 105.003906 183.9375 105.316406 183.808594 C 105.628906 183.679688 105.902344 183.496094 106.140625 183.257812 C 106.378906 183.015625 106.5625 182.742188 106.691406 182.429688 C 106.820312 182.121094 106.886719 181.796875 106.886719 181.457031 L 106.886719 168.742188 C 106.753906 165.421875 102.988281 166.304688 100.785156 166.199219 L 100.785156 156.027344 C 100.785156 155.691406 100.71875 155.367188 100.589844 155.054688 C 100.460938 154.742188 100.277344 154.46875 100.039062 154.230469 C 99.800781 153.992188 99.523438 153.808594 99.214844 153.679688 C 98.902344 153.546875 98.578125 153.484375 98.242188 153.484375 L 49.414062 153.484375 C 49.074219 153.484375 48.75 153.546875 48.441406 153.679688 C 48.128906 153.808594 47.855469 153.992188 47.613281 154.230469 C 47.375 154.46875 47.191406 154.742188 47.0625 155.054688 C 46.933594 155.367188 46.871094 155.691406 46.871094 156.027344 L 46.871094 166.199219 L 43.308594 166.199219 C 42.972656 166.199219 42.648438 166.265625 42.335938 166.394531 C 42.027344 166.523438 41.75 166.707031 41.511719 166.945312 C 41.273438 167.183594 41.089844 167.457031 40.960938 167.769531 C 40.832031 168.082031 40.765625 168.40625 40.765625 168.742188 L 40.765625 181.457031 C 40.765625 181.796875 40.832031 182.121094 40.960938 182.429688 C 41.089844 182.742188 41.273438 183.015625 41.511719 183.257812 C 41.75 183.496094 42.027344 183.679688 42.335938 183.808594 C 42.648438 183.9375 42.972656 184 43.308594 184 Z M 51.957031 158.570312 L 95.699219 158.570312 L 95.699219 166.199219 L 51.957031 166.199219 Z M 45.851562 171.285156 C 49.6875 171.285156 97.964844 171.285156 101.800781 171.285156 L 101.800781 178.914062 L 45.851562 178.914062 Z M 45.851562 171.285156 " fill-opacity="1" fill-rule="nonzero"/></g></svg>