<svg xmlns="http://www.w3.org/2000/svg" xmlns:xlink="http://www.w3.org/1999/xlink" width="300" zoomAndPan="magnify" viewBox="0 0 224.87999 225" height="300" preserveAspectRatio="xMidYMid meet" version="1.0"><defs><clipPath id="2d6f45b02b"><path d="M 0 0.0585938 L 224.761719 0.0585938 L 224.761719 224.9375 L 0 224.9375 Z M 0 0.0585938 " clip-rule="nonzero"/></clipPath><clipPath id="8128b67443"><path d="M 112.441406 0.0585938 C 50.339844 0.0585938 0 50.402344 0 112.5 C 0 174.597656 50.339844 224.941406 112.441406 224.941406 C 174.539062 224.941406 224.878906 174.597656 224.878906 112.5 C 224.878906 50.402344 174.539062 0.0585938 112.441406 0.0585938 " clip-rule="nonzero"/></clipPath><clipPath id="54470f16ed"><path d="M 40.765625 40.828125 L 183.941406 40.828125 L 183.941406 138 L 40.765625 138 Z M 40.765625 40.828125 " clip-rule="nonzero"/></clipPath></defs><g clip-path="url(#2d6f45b02b)"><g clip-path="url(#8128b67443)"><path fill="#004aad" d="M 0 0.0585938 L 224.878906 0.0585938 L 224.878906 224.941406 L 0 224.941406 Z M 0 0.0585938 " fill-opacity="1" fill-rule="nonzero"/></g></g><path fill="#ffffff" d="M 80.023438 184 L 144.683594 184 C 145.136719 184 145.589844 183.957031 146.035156 183.867188 C 146.480469 183.777344 146.914062 183.648438 147.335938 183.472656 C 147.753906 183.300781 148.152344 183.085938 148.53125 182.832031 C 148.910156 182.582031 149.261719 182.292969 149.582031 181.972656 C 149.902344 181.648438 150.191406 181.300781 150.445312 180.921875 C 150.695312 180.542969 150.910156 180.144531 151.082031 179.722656 C 151.257812 179.304688 151.390625 178.871094 151.476562 178.425781 C 151.566406 177.980469 151.609375 177.527344 151.609375 177.074219 L 151.609375 149.363281 C 151.609375 148.90625 151.566406 148.457031 151.476562 148.011719 C 151.390625 147.566406 151.257812 147.132812 151.082031 146.710938 C 150.910156 146.289062 150.695312 145.890625 150.445312 145.511719 C 150.191406 145.136719 149.902344 144.785156 149.582031 144.464844 C 149.261719 144.140625 148.910156 143.855469 148.53125 143.601562 C 148.152344 143.347656 147.753906 143.136719 147.335938 142.960938 C 146.914062 142.789062 146.480469 142.65625 146.035156 142.566406 C 145.589844 142.480469 145.136719 142.433594 144.683594 142.433594 L 80.023438 142.433594 C 79.570312 142.433594 79.117188 142.480469 78.671875 142.566406 C 78.226562 142.65625 77.792969 142.789062 77.375 142.960938 C 76.953125 143.136719 76.554688 143.347656 76.175781 143.601562 C 75.796875 143.855469 75.449219 144.140625 75.125 144.464844 C 74.804688 144.785156 74.515625 145.136719 74.265625 145.511719 C 74.011719 145.890625 73.796875 146.289062 73.625 146.710938 C 73.449219 147.132812 73.320312 147.566406 73.230469 148.011719 C 73.140625 148.457031 73.097656 148.90625 73.097656 149.363281 L 73.097656 177.074219 C 73.097656 177.527344 73.140625 177.980469 73.230469 178.425781 C 73.320312 178.871094 73.449219 179.304688 73.625 179.722656 C 73.796875 180.144531 74.011719 180.542969 74.265625 180.921875 C 74.515625 181.300781 74.804688 181.648438 75.125 181.972656 C 75.449219 182.292969 75.796875 182.582031 76.175781 182.832031 C 76.554688 183.085938 76.953125 183.300781 77.375 183.472656 C 77.792969 183.648438 78.226562 183.777344 78.671875 183.867188 C 79.117188 183.957031 79.570312 184 80.023438 184 Z M 91.570312 179.382812 L 91.570312 147.054688 L 137.753906 147.054688 L 137.753906 179.382812 Z M 146.992188 149.363281 L 146.992188 177.074219 C 146.992188 177.378906 146.933594 177.675781 146.816406 177.957031 C 146.699219 178.238281 146.53125 178.488281 146.316406 178.707031 C 146.101562 178.921875 145.851562 179.089844 145.566406 179.207031 C 145.285156 179.324219 144.988281 179.382812 144.683594 179.382812 L 142.375 179.382812 L 142.375 147.054688 L 144.683594 147.054688 C 144.988281 147.054688 145.285156 147.113281 145.566406 147.230469 C 145.851562 147.347656 146.101562 147.511719 146.316406 147.730469 C 146.53125 147.945312 146.699219 148.195312 146.816406 148.476562 C 146.933594 148.761719 146.992188 149.054688 146.992188 149.363281 Z M 77.714844 149.363281 C 77.714844 149.054688 77.773438 148.761719 77.890625 148.476562 C 78.007812 148.195312 78.175781 147.945312 78.390625 147.730469 C 78.609375 147.511719 78.859375 147.347656 79.140625 147.230469 C 79.421875 147.113281 79.71875 147.054688 80.023438 147.054688 L 86.953125 147.054688 L 86.953125 179.382812 L 80.023438 179.382812 C 79.71875 179.382812 79.421875 179.324219 79.140625 179.207031 C 78.859375 179.089844 78.609375 178.921875 78.390625 178.707031 C 78.175781 178.488281 78.007812 178.238281 77.890625 177.957031 C 77.773438 177.675781 77.714844 177.378906 77.714844 177.074219 Z M 77.714844 149.363281 " fill-opacity="1" fill-rule="nonzero"/><path fill="#ffffff" d="M 80.023438 153.980469 L 84.644531 153.980469 L 84.644531 172.453125 L 80.023438 172.453125 Z M 80.023438 153.980469 " fill-opacity="1" fill-rule="nonzero"/><path fill="#ffffff" d="M 119.28125 63.917969 C 119.738281 63.917969 120.1875 63.875 120.632812 63.785156 C 121.078125 63.699219 121.511719 63.566406 121.933594 63.390625 C 122.351562 63.21875 122.753906 63.003906 123.128906 62.753906 C 123.507812 62.5 123.859375 62.210938 124.179688 61.890625 C 124.503906 61.570312 124.789062 61.21875 125.042969 60.839844 C 125.292969 60.460938 125.507812 60.0625 125.683594 59.644531 C 125.855469 59.222656 125.988281 58.789062 126.078125 58.34375 C 126.164062 57.898438 126.210938 57.445312 126.210938 56.992188 C 126.210938 56.539062 126.164062 56.085938 126.078125 55.640625 C 125.988281 55.195312 125.855469 54.761719 125.683594 54.339844 C 125.507812 53.921875 125.292969 53.523438 125.042969 53.144531 C 124.789062 52.765625 124.503906 52.414062 124.179688 52.09375 C 123.859375 51.773438 123.507812 51.484375 123.128906 51.230469 C 122.753906 50.980469 122.351562 50.765625 121.933594 50.589844 C 121.511719 50.417969 121.078125 50.285156 120.632812 50.199219 C 120.1875 50.109375 119.738281 50.0625 119.28125 50.0625 C 118.828125 50.0625 118.375 50.109375 117.929688 50.199219 C 117.484375 50.285156 117.050781 50.417969 116.628906 50.589844 C 116.210938 50.765625 115.8125 50.980469 115.433594 51.230469 C 115.054688 51.484375 114.703125 51.773438 114.382812 52.09375 C 114.0625 52.414062 113.773438 52.765625 113.523438 53.144531 C 113.269531 53.523438 113.054688 53.921875 112.882812 54.339844 C 112.707031 54.761719 112.574219 55.195312 112.488281 55.640625 C 112.398438 56.085938 112.355469 56.539062 112.355469 56.992188 C 112.355469 57.175781 112.355469 57.339844 112.355469 57.523438 L 103.507812 61.472656 C 103.195312 61.136719 102.847656 60.835938 102.472656 60.570312 C 102.09375 60.304688 101.695312 60.078125 101.277344 59.894531 C 100.855469 59.707031 100.417969 59.5625 99.96875 59.464844 C 99.519531 59.367188 99.066406 59.3125 98.605469 59.300781 C 98.144531 59.292969 97.6875 59.332031 97.234375 59.414062 C 96.78125 59.496094 96.339844 59.621094 95.914062 59.792969 C 95.484375 59.960938 95.078125 60.171875 94.691406 60.421875 C 94.308594 60.675781 93.949219 60.960938 93.621094 61.285156 C 93.292969 61.605469 93 61.957031 92.742188 62.339844 C 92.480469 62.71875 92.265625 63.125 92.085938 63.546875 C 91.90625 63.972656 91.773438 64.410156 91.683594 64.863281 C 91.589844 65.3125 91.546875 65.769531 91.546875 66.230469 C 91.546875 66.691406 91.589844 67.144531 91.683594 67.597656 C 91.773438 68.046875 91.90625 68.484375 92.085938 68.910156 C 92.265625 69.335938 92.480469 69.738281 92.742188 70.117188 C 93 70.5 93.292969 70.851562 93.621094 71.175781 C 93.949219 71.496094 94.308594 71.785156 94.691406 72.035156 C 95.078125 72.285156 95.484375 72.496094 95.914062 72.667969 C 96.339844 72.835938 96.78125 72.964844 97.234375 73.046875 C 97.6875 73.128906 98.144531 73.164062 98.605469 73.15625 C 99.066406 73.148438 99.519531 73.09375 99.96875 72.992188 C 100.417969 72.894531 100.855469 72.75 101.277344 72.566406 C 101.695312 72.378906 102.09375 72.152344 102.472656 71.886719 C 102.847656 71.621094 103.195312 71.320312 103.507812 70.984375 L 112.355469 74.933594 C 112.355469 75.121094 112.355469 75.28125 112.355469 75.464844 C 112.351562 76 112.410156 76.527344 112.53125 77.046875 C 112.652344 77.566406 112.828125 78.066406 113.0625 78.546875 C 113.300781 79.027344 113.585938 79.472656 113.925781 79.886719 C 114.261719 80.296875 114.644531 80.667969 115.066406 80.992188 C 115.492188 81.316406 115.945312 81.589844 116.433594 81.808594 C 116.921875 82.027344 117.425781 82.1875 117.949219 82.292969 C 118.472656 82.394531 119.003906 82.433594 119.535156 82.414062 C 120.070312 82.394531 120.59375 82.316406 121.109375 82.175781 C 121.625 82.035156 122.117188 81.835938 122.585938 81.582031 C 123.054688 81.328125 123.488281 81.023438 123.886719 80.667969 C 124.285156 80.3125 124.640625 79.917969 124.945312 79.480469 C 125.253906 79.042969 125.507812 78.578125 125.707031 78.082031 C 125.90625 77.585938 126.046875 77.074219 126.128906 76.546875 C 126.210938 76.019531 126.230469 75.488281 126.1875 74.957031 C 126.148438 74.425781 126.046875 73.902344 125.882812 73.394531 C 125.722656 72.886719 125.503906 72.402344 125.230469 71.945312 C 124.957031 71.484375 124.636719 71.0625 124.265625 70.679688 C 123.894531 70.296875 123.484375 69.960938 123.035156 69.671875 C 122.585938 69.378906 122.109375 69.144531 121.609375 68.96875 C 121.105469 68.789062 120.589844 68.667969 120.058594 68.609375 C 119.527344 68.546875 118.996094 68.550781 118.464844 68.613281 C 117.9375 68.675781 117.417969 68.796875 116.917969 68.980469 C 116.417969 69.164062 115.941406 69.398438 115.496094 69.691406 C 115.046875 69.984375 114.640625 70.324219 114.269531 70.710938 L 105.425781 66.761719 C 105.425781 66.574219 105.425781 66.414062 105.425781 66.230469 C 105.425781 66.042969 105.425781 65.882812 105.425781 65.699219 L 114.316406 61.75 C 114.960938 62.433594 115.714844 62.964844 116.578125 63.339844 C 117.441406 63.71875 118.339844 63.910156 119.28125 63.917969 Z M 119.28125 73.15625 C 119.589844 73.15625 119.882812 73.214844 120.164062 73.332031 C 120.449219 73.449219 120.699219 73.617188 120.914062 73.832031 C 121.132812 74.050781 121.296875 74.300781 121.414062 74.582031 C 121.53125 74.867188 121.589844 75.160156 121.589844 75.464844 C 121.589844 75.773438 121.53125 76.066406 121.414062 76.351562 C 121.296875 76.632812 121.132812 76.882812 120.914062 77.097656 C 120.699219 77.316406 120.449219 77.480469 120.164062 77.597656 C 119.882812 77.714844 119.589844 77.773438 119.28125 77.773438 C 118.976562 77.773438 118.679688 77.714844 118.398438 77.597656 C 118.113281 77.480469 117.867188 77.316406 117.648438 77.097656 C 117.433594 76.882812 117.265625 76.632812 117.148438 76.351562 C 117.03125 76.066406 116.972656 75.773438 116.972656 75.464844 C 116.972656 75.160156 117.03125 74.867188 117.148438 74.582031 C 117.265625 74.300781 117.433594 74.050781 117.648438 73.832031 C 117.867188 73.617188 118.113281 73.449219 118.398438 73.332031 C 118.679688 73.214844 118.976562 73.15625 119.28125 73.15625 Z M 98.5 68.539062 C 98.191406 68.539062 97.898438 68.480469 97.613281 68.363281 C 97.332031 68.246094 97.082031 68.078125 96.867188 67.863281 C 96.648438 67.644531 96.480469 67.394531 96.363281 67.113281 C 96.246094 66.828125 96.1875 66.535156 96.1875 66.230469 C 96.1875 65.921875 96.246094 65.628906 96.363281 65.34375 C 96.480469 65.0625 96.648438 64.8125 96.867188 64.597656 C 97.082031 64.378906 97.332031 64.210938 97.613281 64.09375 C 97.898438 63.976562 98.191406 63.917969 98.5 63.917969 C 98.804688 63.917969 99.097656 63.976562 99.382812 64.09375 C 99.664062 64.210938 99.914062 64.378906 100.132812 64.597656 C 100.347656 64.8125 100.515625 65.0625 100.632812 65.34375 C 100.75 65.628906 100.808594 65.921875 100.808594 66.230469 C 100.808594 66.535156 100.75 66.828125 100.632812 67.113281 C 100.515625 67.394531 100.347656 67.644531 100.132812 67.863281 C 99.914062 68.078125 99.664062 68.246094 99.382812 68.363281 C 99.097656 68.480469 98.804688 68.539062 98.5 68.539062 Z M 119.28125 54.683594 C 119.589844 54.683594 119.882812 54.742188 120.164062 54.859375 C 120.449219 54.976562 120.699219 55.144531 120.914062 55.359375 C 121.132812 55.574219 121.296875 55.824219 121.414062 56.109375 C 121.53125 56.390625 121.589844 56.6875 121.589844 56.992188 C 121.589844 57.296875 121.53125 57.59375 121.414062 57.875 C 121.296875 58.160156 121.132812 58.410156 120.914062 58.625 C 120.699219 58.839844 120.449219 59.007812 120.164062 59.125 C 119.882812 59.242188 119.589844 59.300781 119.28125 59.300781 C 118.976562 59.300781 118.679688 59.242188 118.398438 59.125 C 118.113281 59.007812 117.867188 58.839844 117.648438 58.625 C 117.433594 58.410156 117.265625 58.160156 117.148438 57.875 C 117.03125 57.59375 116.972656 57.296875 116.972656 56.992188 C 116.972656 56.6875 117.03125 56.390625 117.148438 56.109375 C 117.265625 55.824219 117.433594 55.574219 117.648438 55.359375 C 117.867188 55.144531 118.113281 54.976562 118.398438 54.859375 C 118.679688 54.742188 118.976562 54.683594 119.28125 54.683594 Z M 119.28125 54.683594 " fill-opacity="1" fill-rule="nonzero"/><path fill="#ffffff" d="M 62.75 87.289062 C 62.378906 87.492188 62.085938 87.777344 61.871094 88.140625 C 61.65625 88.503906 61.550781 88.898438 61.550781 89.320312 L 61.550781 112.414062 C 61.550781 112.835938 61.65625 113.230469 61.871094 113.59375 C 62.085938 113.960938 62.378906 114.242188 62.75 114.445312 C 63.109375 114.652344 63.492188 114.753906 63.90625 114.753906 C 64.320312 114.753906 64.703125 114.652344 65.0625 114.445312 L 83.535156 102.898438 C 83.703125 102.796875 83.851562 102.671875 83.988281 102.53125 C 84.125 102.390625 84.238281 102.230469 84.335938 102.058594 C 84.429688 101.890625 84.503906 101.707031 84.554688 101.515625 C 84.601562 101.328125 84.628906 101.132812 84.628906 100.9375 C 84.628906 100.742188 84.601562 100.546875 84.554688 100.355469 C 84.503906 100.167969 84.429688 99.984375 84.335938 99.8125 C 84.238281 99.640625 84.125 99.484375 83.988281 99.34375 C 83.851562 99.199219 83.703125 99.078125 83.535156 98.972656 L 65.0625 87.429688 C 64.714844 87.199219 64.335938 87.074219 63.925781 87.046875 C 63.511719 87.023438 63.121094 87.105469 62.75 87.289062 Z M 66.167969 93.476562 L 77.96875 100.867188 L 66.167969 108.257812 Z M 66.167969 93.476562 " fill-opacity="1" fill-rule="nonzero"/><g clip-path="url(#54470f16ed)"><path fill="#ffffff" d="M 183.941406 99.804688 C 183.734375 94.238281 182.316406 88.996094 179.691406 84.078125 C 178.945312 82.90625 178.125 81.785156 177.234375 80.714844 C 176.34375 79.644531 175.390625 78.636719 174.371094 77.6875 C 173.355469 76.742188 172.28125 75.859375 171.152344 75.046875 C 170.019531 74.234375 168.84375 73.5 167.621094 72.835938 C 166.398438 72.171875 165.136719 71.589844 163.839844 71.085938 C 162.542969 70.582031 161.21875 70.164062 159.871094 69.828125 C 158.519531 69.492188 157.152344 69.246094 155.769531 69.082031 C 154.390625 68.921875 153.003906 68.847656 151.609375 68.863281 C 148.476562 68.867188 145.394531 69.289062 142.375 70.132812 L 142.375 45.445312 C 142.375 45.144531 142.34375 44.84375 142.285156 44.542969 C 142.226562 44.246094 142.140625 43.957031 142.023438 43.679688 C 141.90625 43.398438 141.765625 43.132812 141.597656 42.878906 C 141.425781 42.628906 141.234375 42.394531 141.023438 42.179688 C 140.808594 41.964844 140.574219 41.773438 140.320312 41.605469 C 140.070312 41.4375 139.804688 41.296875 139.523438 41.179688 C 139.242188 41.0625 138.953125 40.976562 138.65625 40.917969 C 138.359375 40.855469 138.058594 40.828125 137.753906 40.828125 L 82.332031 40.828125 C 82.03125 40.828125 81.730469 40.855469 81.433594 40.917969 C 81.136719 40.976562 80.847656 41.0625 80.566406 41.179688 C 80.285156 41.296875 80.019531 41.4375 79.769531 41.605469 C 79.515625 41.773438 79.28125 41.964844 79.066406 42.179688 C 78.855469 42.394531 78.660156 42.628906 78.492188 42.878906 C 78.324219 43.132812 78.183594 43.398438 78.066406 43.679688 C 77.949219 43.957031 77.863281 44.246094 77.804688 44.542969 C 77.746094 44.84375 77.714844 45.144531 77.714844 45.445312 L 77.714844 75.464844 L 43.078125 75.464844 C 42.769531 75.464844 42.476562 75.523438 42.191406 75.640625 C 41.910156 75.757812 41.660156 75.925781 41.445312 76.140625 C 41.226562 76.359375 41.058594 76.609375 40.941406 76.890625 C 40.824219 77.175781 40.765625 77.46875 40.765625 77.773438 L 40.765625 123.960938 C 40.765625 124.265625 40.824219 124.5625 40.941406 124.84375 C 41.058594 125.128906 41.226562 125.375 41.445312 125.59375 C 41.660156 125.808594 41.910156 125.976562 42.191406 126.09375 C 42.476562 126.210938 42.769531 126.269531 43.078125 126.269531 L 100.808594 126.269531 C 101.113281 126.269531 101.410156 126.210938 101.691406 126.09375 C 101.972656 125.976562 102.222656 125.808594 102.441406 125.59375 C 102.65625 125.375 102.824219 125.128906 102.941406 124.84375 C 103.058594 124.5625 103.117188 124.265625 103.117188 123.960938 L 103.117188 91.632812 L 120.273438 91.632812 C 119.625 94.003906 119.292969 96.421875 119.28125 98.882812 C 119.28125 114.722656 132.558594 127.722656 149.300781 128.902344 L 149.300781 135.507812 C 149.304688 136.203125 149.566406 136.78125 150.085938 137.238281 C 150.523438 137.621094 151.03125 137.816406 151.609375 137.816406 L 151.910156 137.816406 C 153.007812 137.667969 154.097656 137.472656 155.175781 137.226562 C 156.257812 136.980469 157.324219 136.6875 158.375 136.347656 C 159.429688 136.007812 160.464844 135.617188 161.484375 135.183594 C 162.503906 134.75 163.5 134.269531 164.476562 133.746094 C 165.449219 133.222656 166.402344 132.65625 167.324219 132.046875 C 168.25 131.4375 169.144531 130.789062 170.011719 130.097656 C 170.878906 129.410156 171.710938 128.683594 172.511719 127.917969 C 173.3125 127.152344 174.078125 126.351562 174.804688 125.519531 C 175.535156 124.6875 176.222656 123.820312 176.875 122.925781 C 177.527344 122.03125 178.136719 121.109375 178.703125 120.15625 C 179.273438 119.207031 179.796875 118.234375 180.277344 117.234375 C 180.757812 116.238281 181.195312 115.222656 181.582031 114.183594 C 181.972656 113.148438 182.3125 112.097656 182.609375 111.03125 C 182.902344 109.960938 183.148438 108.882812 183.347656 107.792969 C 183.542969 106.703125 183.691406 105.609375 183.792969 104.507812 C 183.890625 103.402344 183.941406 102.296875 183.941406 101.191406 C 183.941406 100.777344 183.941406 100.3125 183.941406 99.804688 Z M 98.5 121.652344 L 45.386719 121.652344 L 45.386719 80.085938 L 77.714844 80.085938 L 77.714844 87.011719 C 77.714844 87.316406 77.746094 87.617188 77.804688 87.914062 C 77.863281 88.210938 77.949219 88.5 78.066406 88.78125 C 78.183594 89.058594 78.324219 89.324219 78.492188 89.578125 C 78.660156 89.832031 78.855469 90.0625 79.066406 90.277344 C 79.28125 90.492188 79.515625 90.683594 79.769531 90.851562 C 80.019531 91.019531 80.285156 91.164062 80.566406 91.28125 C 80.847656 91.394531 81.136719 91.484375 81.433594 91.542969 C 81.730469 91.601562 82.03125 91.632812 82.332031 91.632812 L 98.5 91.632812 Z M 82.332031 87.011719 L 82.332031 45.445312 L 137.753906 45.445312 L 137.753906 71.792969 C 136.035156 72.539062 134.394531 73.429688 132.835938 74.464844 C 131.273438 75.503906 129.820312 76.671875 128.46875 77.972656 C 127.117188 79.269531 125.894531 80.679688 124.796875 82.199219 C 123.699219 83.71875 122.746094 85.320312 121.9375 87.011719 Z M 153.921875 132.757812 L 153.921875 126.59375 C 153.921875 126.285156 153.863281 125.992188 153.746094 125.710938 C 153.628906 125.425781 153.460938 125.175781 153.246094 124.960938 C 153.027344 124.742188 152.777344 124.578125 152.496094 124.460938 C 152.210938 124.34375 151.917969 124.285156 151.609375 124.285156 C 136.324219 124.285156 123.898438 112.898438 123.898438 98.882812 C 123.898438 84.863281 136.324219 73.480469 151.609375 73.480469 C 152.796875 73.460938 153.976562 73.519531 155.15625 73.648438 C 156.332031 73.78125 157.5 73.984375 158.648438 74.261719 C 159.800781 74.542969 160.933594 74.890625 162.039062 75.3125 C 163.148438 75.730469 164.226562 76.21875 165.273438 76.773438 C 166.320312 77.332031 167.328125 77.949219 168.296875 78.632812 C 169.265625 79.316406 170.1875 80.058594 171.0625 80.855469 C 171.9375 81.65625 172.757812 82.507812 173.527344 83.410156 C 174.292969 84.3125 175 85.257812 175.652344 86.25 C 177.902344 90.492188 179.125 95.007812 179.324219 99.804688 L 179.324219 100.035156 C 179.324219 100.429688 179.324219 100.820312 179.324219 101.191406 C 179.320312 102.105469 179.28125 103.015625 179.207031 103.925781 C 179.128906 104.835938 179.011719 105.738281 178.859375 106.640625 C 178.703125 107.539062 178.511719 108.429688 178.28125 109.3125 C 178.054688 110.195312 177.785156 111.070312 177.484375 111.929688 C 177.179688 112.789062 176.839844 113.636719 176.464844 114.46875 C 176.089844 115.300781 175.679688 116.117188 175.234375 116.914062 C 174.792969 117.710938 174.3125 118.488281 173.804688 119.246094 C 173.292969 120.003906 172.753906 120.738281 172.179688 121.449219 C 171.609375 122.160156 171.007812 122.84375 170.375 123.503906 C 169.746094 124.164062 169.089844 124.796875 168.40625 125.402344 C 167.722656 126.007812 167.011719 126.582031 166.28125 127.125 C 165.546875 127.671875 164.792969 128.183594 164.015625 128.664062 C 163.242188 129.144531 162.445312 129.59375 161.632812 130.003906 C 160.820312 130.417969 159.988281 130.796875 159.144531 131.140625 C 158.296875 131.484375 157.4375 131.789062 156.566406 132.058594 C 155.695312 132.332031 154.8125 132.5625 153.921875 132.757812 Z M 153.921875 132.757812 " fill-opacity="1" fill-rule="nonzero"/></g><path fill="#ffffff" d="M 156.230469 101.191406 C 156.230469 101.496094 156.199219 101.792969 156.140625 102.09375 C 156.082031 102.390625 155.996094 102.679688 155.878906 102.957031 C 155.761719 103.238281 155.621094 103.503906 155.453125 103.757812 C 155.28125 104.007812 155.089844 104.242188 154.878906 104.457031 C 154.664062 104.671875 154.429688 104.863281 154.175781 105.03125 C 153.925781 105.199219 153.660156 105.34375 153.378906 105.457031 C 153.097656 105.574219 152.808594 105.660156 152.511719 105.722656 C 152.214844 105.78125 151.914062 105.808594 151.609375 105.808594 C 151.308594 105.808594 151.007812 105.78125 150.710938 105.722656 C 150.414062 105.660156 150.125 105.574219 149.84375 105.457031 C 149.5625 105.34375 149.296875 105.199219 149.046875 105.03125 C 148.792969 104.863281 148.558594 104.671875 148.34375 104.457031 C 148.132812 104.242188 147.941406 104.007812 147.769531 103.757812 C 147.601562 103.503906 147.460938 103.238281 147.34375 102.957031 C 147.226562 102.679688 147.140625 102.390625 147.082031 102.09375 C 147.023438 101.792969 146.992188 101.496094 146.992188 101.191406 C 146.992188 100.886719 147.023438 100.585938 147.082031 100.289062 C 147.140625 99.992188 147.226562 99.703125 147.34375 99.421875 C 147.460938 99.144531 147.601562 98.878906 147.769531 98.625 C 147.941406 98.375 148.132812 98.140625 148.34375 97.925781 C 148.558594 97.710938 148.792969 97.519531 149.046875 97.351562 C 149.296875 97.183594 149.5625 97.039062 149.84375 96.925781 C 150.125 96.808594 150.414062 96.71875 150.710938 96.660156 C 151.007812 96.601562 151.308594 96.574219 151.609375 96.574219 C 151.914062 96.574219 152.214844 96.601562 152.511719 96.660156 C 152.808594 96.71875 153.097656 96.808594 153.378906 96.925781 C 153.660156 97.039062 153.925781 97.183594 154.175781 97.351562 C 154.429688 97.519531 154.664062 97.710938 154.878906 97.925781 C 155.089844 98.140625 155.28125 98.375 155.453125 98.625 C 155.621094 98.878906 155.761719 99.144531 155.878906 99.421875 C 155.996094 99.703125 156.082031 99.992188 156.140625 100.289062 C 156.199219 100.585938 156.230469 100.886719 156.230469 101.191406 Z M 156.230469 101.191406 " fill-opacity="1" fill-rule="nonzero"/><path fill="#ffffff" d="M 170.085938 101.191406 C 170.085938 101.496094 170.054688 101.792969 169.996094 102.09375 C 169.9375 102.390625 169.851562 102.679688 169.734375 102.957031 C 169.617188 103.238281 169.476562 103.503906 169.308594 103.757812 C 169.136719 104.007812 168.945312 104.242188 168.734375 104.457031 C 168.519531 104.671875 168.285156 104.863281 168.03125 105.03125 C 167.78125 105.199219 167.515625 105.34375 167.234375 105.457031 C 166.953125 105.574219 166.664062 105.660156 166.367188 105.722656 C 166.070312 105.78125 165.769531 105.808594 165.46875 105.808594 C 165.164062 105.808594 164.863281 105.78125 164.566406 105.722656 C 164.269531 105.660156 163.980469 105.574219 163.699219 105.457031 C 163.417969 105.34375 163.152344 105.199219 162.902344 105.03125 C 162.648438 104.863281 162.414062 104.671875 162.199219 104.457031 C 161.988281 104.242188 161.796875 104.007812 161.625 103.757812 C 161.457031 103.503906 161.316406 103.238281 161.199219 102.957031 C 161.082031 102.679688 160.996094 102.390625 160.9375 102.09375 C 160.878906 101.792969 160.847656 101.496094 160.847656 101.191406 C 160.847656 100.886719 160.878906 100.585938 160.9375 100.289062 C 160.996094 99.992188 161.082031 99.703125 161.199219 99.421875 C 161.316406 99.144531 161.457031 98.878906 161.625 98.625 C 161.796875 98.375 161.988281 98.140625 162.199219 97.925781 C 162.414062 97.710938 162.648438 97.519531 162.902344 97.351562 C 163.152344 97.183594 163.417969 97.039062 163.699219 96.925781 C 163.980469 96.808594 164.269531 96.71875 164.566406 96.660156 C 164.863281 96.601562 165.164062 96.574219 165.46875 96.574219 C 165.769531 96.574219 166.070312 96.601562 166.367188 96.660156 C 166.664062 96.71875 166.953125 96.808594 167.234375 96.925781 C 167.515625 97.039062 167.78125 97.183594 168.03125 97.351562 C 168.285156 97.519531 168.519531 97.710938 168.734375 97.925781 C 168.945312 98.140625 169.136719 98.375 169.308594 98.625 C 169.476562 98.878906 169.617188 99.144531 169.734375 99.421875 C 169.851562 99.703125 169.9375 99.992188 169.996094 100.289062 C 170.054688 100.585938 170.085938 100.886719 170.085938 101.191406 Z M 170.085938 101.191406 " fill-opacity="1" fill-rule="nonzero"/><path fill="#ffffff" d="M 142.375 100.867188 C 142.375 101.171875 142.34375 101.472656 142.285156 101.769531 C 142.226562 102.066406 142.140625 102.355469 142.023438 102.636719 C 141.90625 102.914062 141.765625 103.183594 141.597656 103.433594 C 141.425781 103.6875 141.234375 103.917969 141.023438 104.132812 C 140.808594 104.347656 140.574219 104.539062 140.320312 104.707031 C 140.070312 104.875 139.804688 105.019531 139.523438 105.136719 C 139.242188 105.25 138.953125 105.339844 138.65625 105.398438 C 138.359375 105.457031 138.058594 105.488281 137.753906 105.488281 C 137.453125 105.488281 137.152344 105.457031 136.855469 105.398438 C 136.558594 105.339844 136.269531 105.25 135.988281 105.136719 C 135.707031 105.019531 135.441406 104.875 135.191406 104.707031 C 134.9375 104.539062 134.703125 104.347656 134.488281 104.132812 C 134.277344 103.917969 134.085938 103.6875 133.914062 103.433594 C 133.746094 103.183594 133.605469 102.914062 133.488281 102.636719 C 133.371094 102.355469 133.285156 102.066406 133.226562 101.769531 C 133.167969 101.472656 133.136719 101.171875 133.136719 100.867188 C 133.136719 100.566406 133.167969 100.265625 133.226562 99.96875 C 133.285156 99.667969 133.371094 99.378906 133.488281 99.101562 C 133.605469 98.820312 133.746094 98.554688 133.914062 98.300781 C 134.085938 98.050781 134.277344 97.816406 134.488281 97.601562 C 134.703125 97.386719 134.9375 97.195312 135.191406 97.027344 C 135.441406 96.859375 135.707031 96.71875 135.988281 96.601562 C 136.269531 96.484375 136.558594 96.398438 136.855469 96.339844 C 137.152344 96.277344 137.453125 96.25 137.753906 96.25 C 138.058594 96.25 138.359375 96.277344 138.65625 96.339844 C 138.953125 96.398438 139.242188 96.484375 139.523438 96.601562 C 139.804688 96.71875 140.070312 96.859375 140.320312 97.027344 C 140.574219 97.195312 140.808594 97.386719 141.023438 97.601562 C 141.234375 97.816406 141.425781 98.050781 141.597656 98.300781 C 141.765625 98.554688 141.90625 98.820312 142.023438 99.101562 C 142.140625 99.378906 142.226562 99.667969 142.285156 99.96875 C 142.34375 100.265625 142.375 100.566406 142.375 100.867188 Z M 142.375 100.867188 " fill-opacity="1" fill-rule="nonzero"/></svg>