<svg xmlns="http://www.w3.org/2000/svg" xmlns:xlink="http://www.w3.org/1999/xlink" width="300" zoomAndPan="magnify" viewBox="0 0 224.87999 225" height="300" preserveAspectRatio="xMidYMid meet" version="1.0"><defs><clipPath id="d4eb98f49b"><path d="M 0 0.0585938 L 224.761719 0.0585938 L 224.761719 224.9375 L 0 224.9375 Z M 0 0.0585938 " clip-rule="nonzero"/></clipPath><clipPath id="2d806716ff"><path d="M 0 0.0585938 L 224.761719 0.0585938 L 224.761719 224.9375 L 0 224.9375 Z M 0 0.0585938 " clip-rule="nonzero"/></clipPath><clipPath id="54a035ae5a"><path d="M 112.441406 0.0585938 C 50.339844 0.0585938 0 50.402344 0 112.5 C 0 174.597656 50.339844 224.941406 112.441406 224.941406 C 174.539062 224.941406 224.878906 174.597656 224.878906 112.5 C 224.878906 50.402344 174.539062 0.0585938 112.441406 0.0585938 " clip-rule="nonzero"/></clipPath><clipPath id="c996283c22"><path d="M 48.632812 52.765625 L 191.804688 52.765625 L 191.804688 177.199219 L 48.632812 177.199219 Z M 48.632812 52.765625 " clip-rule="nonzero"/></clipPath></defs><g clip-path="url(#d4eb98f49b)"><path fill="#ffffff" d="M 0 0.0585938 L 224.878906 0.0585938 L 224.878906 1154.445312 L 0 1154.445312 Z M 0 0.0585938 " fill-opacity="1" fill-rule="nonzero"/><path fill="#ffffff" d="M 0 0.0585938 L 224.878906 0.0585938 L 224.878906 224.941406 L 0 224.941406 Z M 0 0.0585938 " fill-opacity="1" fill-rule="nonzero"/><path fill="#ffffff" d="M 0 0.0585938 L 224.878906 0.0585938 L 224.878906 224.941406 L 0 224.941406 Z M 0 0.0585938 " fill-opacity="1" fill-rule="nonzero"/></g><g clip-path="url(#2d806716ff)"><g clip-path="url(#54a035ae5a)"><path fill="#178429" d="M 0 0.0585938 L 224.878906 0.0585938 L 224.878906 224.941406 L 0 224.941406 Z M 0 0.0585938 " fill-opacity="1" fill-rule="nonzero"/></g></g><path fill="#ffffff" d="M 174.890625 112.589844 C 176.203125 112.589844 177.273438 113.664062 177.273438 114.980469 C 177.273438 116.296875 176.203125 117.371094 174.890625 117.371094 C 173.578125 117.371094 172.507812 116.296875 172.507812 114.980469 C 172.507812 113.664062 173.578125 112.589844 174.890625 112.589844 Z M 174.890625 122.152344 C 178.835938 122.152344 182.039062 118.941406 182.039062 114.980469 C 182.039062 111.023438 178.835938 107.8125 174.890625 107.8125 C 170.945312 107.8125 167.746094 111.023438 167.746094 114.980469 C 167.746094 118.941406 170.945312 122.152344 174.890625 122.152344 " fill-opacity="1" fill-rule="nonzero"/><g clip-path="url(#c996283c22)"><path fill="#ffffff" d="M 95.011719 59.792969 C 89.355469 65.246094 84.691406 73.609375 81.554688 83.910156 L 62.554688 83.910156 C 70.007812 72.339844 81.5 63.640625 95.011719 59.792969 Z M 158.570312 83.910156 L 139.519531 83.910156 C 136.355469 73.5625 131.648438 65.246094 126 59.820312 C 139.335938 63.621094 150.996094 72.199219 158.570312 83.910156 Z M 147.132812 103.03125 L 143.269531 103.03125 C 142.757812 97.988281 141.941406 93.179688 140.84375 88.6875 L 161.332031 88.6875 C 161.835938 89.660156 162.308594 90.648438 162.765625 91.660156 C 156.289062 93.066406 150.546875 97.121094 147.132812 103.03125 Z M 186.792969 115.511719 C 186.523438 125.765625 177.972656 134.101562 167.734375 134.101562 C 160.980469 134.101562 154.671875 130.453125 151.265625 124.578125 C 150.398438 123.085938 148.808594 122.152344 147.132812 122.152344 L 137.761719 122.152344 L 133.695312 118.070312 C 132.800781 117.175781 131.210938 117.175781 130.328125 118.070312 L 127.246094 121.160156 L 124.167969 118.070312 C 123.234375 117.136719 121.726562 117.136719 120.796875 118.070312 L 116.730469 122.152344 L 112.953125 122.152344 L 112.953125 107.8125 L 147.132812 107.8125 C 148.808594 107.8125 150.398438 106.875 151.265625 105.382812 C 154.671875 99.511719 160.980469 95.859375 167.734375 95.859375 C 172.917969 95.859375 177.765625 97.914062 181.386719 101.628906 C 185.007812 105.363281 186.921875 110.292969 186.792969 115.511719 Z M 161.332031 141.273438 L 140.84375 141.273438 C 141.941406 136.800781 142.75 131.992188 143.269531 126.96875 L 147.152344 126.988281 C 150.546875 132.851562 156.289062 136.894531 162.765625 138.304688 C 162.308594 139.3125 161.835938 140.300781 161.332031 141.273438 Z M 126 170.152344 C 131.648438 164.71875 136.355469 156.398438 139.519531 146.054688 L 158.570312 146.054688 C 150.996094 157.769531 139.335938 166.339844 126 170.152344 Z M 77.257812 117.371094 C 77.414062 125.933594 78.476562 134 80.253906 141.273438 L 59.78125 141.273438 C 56.058594 134.054688 53.816406 125.960938 53.453125 117.371094 Z M 108.1875 88.6875 L 108.1875 112.589844 L 82.019531 112.589844 C 82.199219 104.058594 83.371094 95.945312 85.285156 88.6875 Z M 108.1875 57.839844 L 108.1875 83.910156 L 86.703125 83.910156 C 91.449219 69.492188 99.3125 59.390625 108.1875 57.839844 Z M 112.953125 83.910156 L 112.953125 57.839844 C 121.8125 59.371094 129.730469 69.351562 134.496094 83.910156 Z M 112.953125 88.6875 L 135.890625 88.6875 C 137.0625 93.152344 137.9375 97.960938 138.488281 103.03125 L 112.953125 103.03125 Z M 112.953125 141.273438 L 112.953125 126.933594 L 117.71875 126.933594 C 118.351562 126.933594 118.953125 126.679688 119.402344 126.230469 L 122.480469 123.140625 L 125.5625 126.230469 C 126.007812 126.679688 126.613281 126.933594 127.246094 126.933594 C 127.878906 126.933594 128.484375 126.679688 128.929688 126.230469 L 132.011719 123.140625 L 135.089844 126.230469 C 135.539062 126.679688 136.144531 126.933594 136.773438 126.933594 L 138.488281 126.941406 C 137.9375 132 137.0625 136.808594 135.890625 141.273438 Z M 112.953125 172.121094 L 112.953125 146.054688 L 134.496094 146.054688 C 129.730469 160.609375 121.8125 170.589844 112.953125 172.121094 Z M 108.1875 146.054688 L 108.1875 172.121094 C 99.3125 170.570312 91.449219 160.46875 86.703125 146.054688 Z M 108.1875 124.542969 L 108.1875 141.273438 L 85.285156 141.273438 C 83.371094 134.019531 82.199219 125.90625 82.019531 117.371094 L 108.1875 117.371094 Z M 59.78125 88.6875 L 80.253906 88.6875 C 78.476562 95.960938 77.414062 104.027344 77.257812 112.589844 L 53.453125 112.589844 C 53.816406 104 56.058594 95.90625 59.78125 88.6875 Z M 62.554688 146.054688 L 81.566406 146.054688 C 84.691406 156.351562 89.355469 164.726562 95.011719 170.167969 C 81.5 166.324219 70.007812 157.621094 62.554688 146.054688 Z M 110.570312 177.125 C 133.230469 177.125 154.101562 164.425781 164.851562 144.828125 C 164.914062 144.71875 164.980469 144.617188 165.027344 144.484375 C 166.015625 142.671875 166.898438 140.804688 167.699219 138.882812 C 167.707031 138.882812 167.726562 138.882812 167.734375 138.882812 C 180.53125 138.882812 191.214844 128.464844 191.558594 115.644531 C 191.726562 109.117188 189.324219 102.957031 184.792969 98.296875 C 180.269531 93.648438 174.222656 91.078125 167.734375 91.078125 C 167.726562 91.078125 167.707031 91.078125 167.699219 91.078125 C 166.898438 89.15625 166.015625 87.289062 165.027344 85.476562 C 164.980469 85.355469 164.914062 85.242188 164.851562 85.132812 C 154.101562 65.542969 133.230469 52.835938 110.570312 52.835938 C 76.417969 52.835938 48.632812 80.714844 48.632812 114.980469 C 48.632812 149.246094 76.417969 177.125 110.570312 177.125 " fill-opacity="1" fill-rule="nonzero"/></g></svg>