<svg xmlns="http://www.w3.org/2000/svg" xmlns:xlink="http://www.w3.org/1999/xlink" width="300" zoomAndPan="magnify" viewBox="0 0 224.87999 225" height="300" preserveAspectRatio="xMidYMid meet" version="1.0"><defs><clipPath id="f1621bd204"><path d="M 0 0.0585938 L 224.761719 0.0585938 L 224.761719 224.9375 L 0 224.9375 Z M 0 0.0585938 " clip-rule="nonzero"/></clipPath><clipPath id="4c1da1a6ad"><path d="M 112.441406 0.0585938 C 50.339844 0.0585938 0 50.402344 0 112.5 C 0 174.597656 50.339844 224.941406 112.441406 224.941406 C 174.539062 224.941406 224.878906 174.597656 224.878906 112.5 C 224.878906 50.402344 174.539062 0.0585938 112.441406 0.0585938 " clip-rule="nonzero"/></clipPath><clipPath id="ee394d37f3"><path d="M 35 77 L 190 77 L 190 147.957031 L 35 147.957031 Z M 35 77 " clip-rule="nonzero"/></clipPath></defs><g clip-path="url(#f1621bd204)"><g clip-path="url(#4c1da1a6ad)"><path fill="#004aad" d="M 0 0.0585938 L 224.878906 0.0585938 L 224.878906 224.941406 L 0 224.941406 Z M 0 0.0585938 " fill-opacity="1" fill-rule="nonzero"/></g></g><g clip-path="url(#ee394d37f3)"><path fill="#ffffff" d="M 79.238281 120.605469 C 63.890625 122.226562 50.839844 124.871094 43.097656 128.03125 L 43.097656 119.253906 C 43.097656 115.070312 47.183594 110.578125 52.761719 109.074219 L 55.328125 108.378906 C 56.421875 107.738281 57.40625 106.863281 58.1875 105.84375 C 53.683594 105.652344 50.417969 102.363281 50.417969 97.4375 C 50.417969 91.355469 55.398438 85.082031 61.539062 83.425781 C 67.679688 81.765625 72.660156 85.351562 72.660156 91.433594 C 72.660156 96.25 69.535156 101.1875 65.183594 103.855469 C 66.066406 104.480469 67.152344 104.832031 68.355469 104.863281 L 68.878906 104.722656 C 74.453125 103.214844 79.238281 105.3125 79.238281 109.492188 Z M 131.613281 119.4375 C 125.417969 119.074219 119.019531 118.882812 112.585938 118.882812 C 106.359375 118.882812 100.171875 119.0625 94.160156 119.402344 L 93.992188 108.382812 C 93.925781 103.929688 98.9375 100.632812 104.832031 100.972656 L 105.382812 101.003906 C 106.652344 100.699219 107.792969 100.089844 108.71875 99.246094 C 104.109375 97.417969 100.757812 92.894531 100.710938 87.816406 C 100.648438 81.410156 105.957031 76.71875 112.550781 77.304688 C 119.128906 77.855469 124.402344 83.277344 124.347656 89.445312 C 124.300781 94.4375 120.832031 98.511719 116.089844 99.726562 C 116.914062 100.597656 117.941406 101.273438 119.089844 101.675781 L 121.78125 101.789062 C 127.617188 102.011719 131.832031 105.546875 131.765625 109.734375 Z M 182.320312 128.132812 C 174.648438 124.945312 161.582031 122.269531 146.179688 120.628906 L 146.179688 109.492188 C 146.179688 105.3125 150.960938 103.214844 156.535156 104.722656 L 157.058594 104.863281 C 158.265625 104.832031 159.351562 104.480469 160.230469 103.855469 C 155.878906 101.1875 152.757812 96.25 152.757812 91.433594 C 152.757812 85.351562 157.734375 81.765625 163.878906 83.425781 C 170.019531 85.082031 175 91.355469 175 97.4375 C 175 102.363281 171.730469 105.652344 167.226562 105.84375 C 168.011719 106.863281 168.992188 107.738281 170.089844 108.378906 L 172.65625 109.074219 C 178.230469 110.578125 182.320312 115.070312 182.320312 119.253906 Z M 112.585938 147.898438 C 63.886719 147.898438 29.945312 142.121094 36.769531 134.992188 C 43.59375 127.863281 77.539062 122.082031 112.585938 122.082031 C 147.628906 122.082031 181.574219 127.863281 188.398438 134.992188 C 195.226562 142.121094 161.28125 147.898438 112.585938 147.898438 Z M 112.585938 147.898438 " fill-opacity="1" fill-rule="evenodd"/></g></svg>