<svg xmlns="http://www.w3.org/2000/svg" xmlns:xlink="http://www.w3.org/1999/xlink" width="300" zoomAndPan="magnify" viewBox="0 0 224.87999 225" height="300" preserveAspectRatio="xMidYMid meet" version="1.0"><defs><clipPath id="800edff28a"><path d="M 0 0.0585938 L 224.761719 0.0585938 L 224.761719 224.9375 L 0 224.9375 Z M 0 0.0585938 " clip-rule="nonzero"/></clipPath><clipPath id="b57066e46c"><path d="M 112.441406 0.0585938 C 50.339844 0.0585938 0 50.402344 0 112.5 C 0 174.597656 50.339844 224.941406 112.441406 224.941406 C 174.539062 224.941406 224.878906 174.597656 224.878906 112.5 C 224.878906 50.402344 174.539062 0.0585938 112.441406 0.0585938 " clip-rule="nonzero"/></clipPath><clipPath id="5b2b89898d"><path d="M 105.683594 131.667969 L 119.679688 131.667969 L 119.679688 183.824219 L 105.683594 183.824219 Z M 105.683594 131.667969 " clip-rule="nonzero"/></clipPath><clipPath id="b4fa13121b"><path d="M 67.195312 41.019531 L 157.898438 41.019531 L 157.898438 153.359375 L 67.195312 153.359375 Z M 67.195312 41.019531 " clip-rule="nonzero"/></clipPath><clipPath id="a320bc9ba6"><path d="M 133 41.019531 L 157.898438 41.019531 L 157.898438 65.8125 L 133 65.8125 Z M 133 41.019531 " clip-rule="nonzero"/></clipPath></defs><g clip-path="url(#800edff28a)"><g clip-path="url(#b57066e46c)"><path fill="#004aad" d="M 0 0.0585938 L 224.878906 0.0585938 L 224.878906 224.941406 L 0 224.941406 Z M 0 0.0585938 " fill-opacity="1" fill-rule="nonzero"/></g></g><g clip-path="url(#5b2b89898d)"><path fill="#ffffff" d="M 112.621094 183.824219 L 112.484375 183.824219 C 108.796875 183.824219 105.796875 180.835938 105.796875 177.160156 L 105.796875 133.953125 C 105.796875 132.722656 106.800781 131.722656 108.039062 131.722656 L 117.066406 131.722656 C 118.304688 131.722656 119.304688 132.722656 119.304688 133.953125 L 119.304688 177.160156 C 119.304688 180.832031 116.308594 183.824219 112.621094 183.824219 Z M 110.277344 136.183594 L 110.277344 177.160156 C 110.277344 178.375 111.269531 179.363281 112.484375 179.363281 L 112.621094 179.363281 C 113.835938 179.363281 114.828125 178.375 114.828125 177.160156 L 114.828125 136.183594 L 110.277344 136.183594 " fill-opacity="1" fill-rule="evenodd"/></g><path fill="#ffffff" d="M 120.964844 136.183594 L 104.140625 136.183594 C 102.902344 136.183594 101.902344 135.1875 101.902344 133.953125 L 101.902344 126.671875 C 101.902344 125.441406 102.902344 124.441406 104.140625 124.441406 L 120.964844 124.441406 C 122.199219 124.441406 123.203125 125.441406 123.203125 126.671875 L 123.203125 133.953125 C 123.203125 135.1875 122.199219 136.183594 120.964844 136.183594 Z M 106.378906 131.722656 L 118.726562 131.722656 L 118.726562 128.90625 L 106.378906 128.90625 L 106.378906 131.722656 " fill-opacity="1" fill-rule="evenodd"/><path fill="#ffffff" d="M 133.539062 128.90625 L 91.566406 128.90625 C 90.332031 128.90625 89.328125 127.90625 89.328125 126.671875 L 89.328125 106.910156 C 89.328125 105.675781 90.332031 104.679688 91.566406 104.679688 L 133.539062 104.679688 C 134.773438 104.679688 135.777344 105.675781 135.777344 106.910156 L 135.777344 126.671875 C 135.777344 127.90625 134.773438 128.90625 133.539062 128.90625 Z M 93.804688 124.441406 L 131.296875 124.441406 L 131.296875 109.140625 L 93.804688 109.140625 L 93.804688 124.441406 " fill-opacity="1" fill-rule="evenodd"/><path fill="#ffffff" d="M 138.183594 135.507812 C 134.386719 135.507812 131.296875 132.433594 131.296875 128.648438 L 131.296875 104.933594 C 131.296875 101.152344 134.386719 98.074219 138.183594 98.074219 C 141.976562 98.074219 145.066406 101.152344 145.066406 104.933594 L 145.066406 128.648438 C 145.066406 132.433594 141.976562 135.507812 138.183594 135.507812 Z M 138.183594 102.539062 C 136.855469 102.539062 135.777344 103.613281 135.777344 104.933594 L 135.777344 128.648438 C 135.777344 129.972656 136.855469 131.046875 138.183594 131.046875 C 139.507812 131.046875 140.589844 129.96875 140.589844 128.648438 L 140.589844 104.933594 C 140.589844 103.613281 139.507812 102.539062 138.183594 102.539062 " fill-opacity="1" fill-rule="evenodd"/><path fill="#ffffff" d="M 86.921875 135.507812 C 83.125 135.507812 80.039062 132.433594 80.035156 128.652344 L 80.035156 104.933594 C 80.035156 101.152344 83.125 98.074219 86.921875 98.074219 C 90.71875 98.074219 93.804688 101.152344 93.804688 104.933594 L 93.804688 128.648438 C 93.804688 132.433594 90.71875 135.507812 86.921875 135.507812 Z M 86.921875 102.539062 C 85.59375 102.539062 84.515625 103.613281 84.515625 104.933594 L 84.515625 128.648438 C 84.515625 129.96875 85.59375 131.046875 86.921875 131.046875 C 88.25 131.046875 89.328125 129.96875 89.328125 128.648438 L 89.328125 104.933594 C 89.328125 103.613281 88.25 102.539062 86.921875 102.539062 " fill-opacity="1" fill-rule="evenodd"/><g clip-path="url(#b4fa13121b)"><path fill="#ffffff" d="M 155.667969 153.265625 L 117.066406 153.265625 C 115.832031 153.265625 114.828125 152.265625 114.828125 151.035156 C 114.828125 149.800781 115.832031 148.804688 117.066406 148.804688 L 153.429688 148.804688 L 153.429688 64.257812 L 134.585938 45.484375 L 71.675781 45.484375 L 71.675781 148.804688 L 108.035156 148.804688 C 109.273438 148.804688 110.277344 149.800781 110.277344 151.035156 C 110.277344 152.265625 109.273438 153.265625 108.035156 153.265625 L 69.4375 153.265625 C 68.199219 153.265625 67.195312 152.265625 67.195312 151.035156 L 67.195312 43.253906 C 67.195312 42.019531 68.199219 41.019531 69.4375 41.019531 L 135.511719 41.019531 C 136.105469 41.019531 136.675781 41.253906 137.097656 41.671875 L 157.25 61.753906 C 157.671875 62.171875 157.90625 62.742188 157.90625 63.332031 L 157.90625 151.035156 C 157.90625 152.265625 156.902344 153.265625 155.667969 153.265625 " fill-opacity="1" fill-rule="evenodd"/></g><g clip-path="url(#a320bc9ba6)"><path fill="#ffffff" d="M 155.667969 65.566406 L 135.511719 65.566406 C 134.277344 65.566406 133.273438 64.566406 133.273438 63.332031 L 133.273438 43.253906 C 133.273438 42.019531 134.277344 41.019531 135.511719 41.019531 C 136.75 41.019531 137.75 42.019531 137.75 43.253906 L 137.75 61.101562 L 155.667969 61.101562 C 156.90625 61.101562 157.90625 62.101562 157.90625 63.332031 C 157.90625 64.566406 156.902344 65.566406 155.667969 65.566406 " fill-opacity="1" fill-rule="evenodd"/></g><path fill="#ffffff" d="M 143.964844 92.007812 L 81.136719 92.007812 C 79.902344 92.007812 78.898438 91.011719 78.898438 89.777344 C 78.898438 88.546875 79.902344 87.546875 81.136719 87.546875 L 143.964844 87.546875 C 145.203125 87.546875 146.203125 88.546875 146.203125 89.777344 C 146.203125 91.011719 145.203125 92.007812 143.964844 92.007812 " fill-opacity="1" fill-rule="evenodd"/><path fill="#ffffff" d="M 143.964844 77.28125 L 81.136719 77.28125 C 79.902344 77.28125 78.898438 76.277344 78.898438 75.046875 C 78.898438 73.816406 79.902344 72.816406 81.136719 72.816406 L 143.964844 72.816406 C 145.203125 72.816406 146.203125 73.816406 146.203125 75.046875 C 146.203125 76.277344 145.203125 77.28125 143.964844 77.28125 " fill-opacity="1" fill-rule="evenodd"/><path fill="#ffffff" d="M 115.101562 62.546875 L 81.136719 62.546875 C 79.902344 62.546875 78.898438 61.546875 78.898438 60.316406 C 78.898438 59.085938 79.902344 58.085938 81.136719 58.085938 L 115.101562 58.085938 C 116.339844 58.085938 117.34375 59.085938 117.34375 60.316406 C 117.34375 61.546875 116.339844 62.546875 115.101562 62.546875 " fill-opacity="1" fill-rule="evenodd"/></svg>