<svg xmlns="http://www.w3.org/2000/svg" xmlns:xlink="http://www.w3.org/1999/xlink" width="300" zoomAndPan="magnify" viewBox="0 0 224.87999 225" height="300" preserveAspectRatio="xMidYMid meet" version="1.0"><defs><clipPath id="75b981cbc1"><path d="M 0 0.0585938 L 224.761719 0.0585938 L 224.761719 224.9375 L 0 224.9375 Z M 0 0.0585938 " clip-rule="nonzero"/></clipPath><clipPath id="3ed5ffff49"><path d="M 112.441406 0.0585938 C 50.339844 0.0585938 0 50.402344 0 112.5 C 0 174.597656 50.339844 224.941406 112.441406 224.941406 C 174.539062 224.941406 224.878906 174.597656 224.878906 112.5 C 224.878906 50.402344 174.539062 0.0585938 112.441406 0.0585938 " clip-rule="nonzero"/></clipPath><clipPath id="dc2ea37506"><path d="M 40.765625 40.828125 L 183.941406 40.828125 L 183.941406 184 L 40.765625 184 Z M 40.765625 40.828125 " clip-rule="nonzero"/></clipPath></defs><g clip-path="url(#75b981cbc1)"><g clip-path="url(#3ed5ffff49)"><path fill="#004aad" d="M 0 0.0585938 L 224.878906 0.0585938 L 224.878906 224.941406 L 0 224.941406 Z M 0 0.0585938 " fill-opacity="1" fill-rule="nonzero"/></g></g><g clip-path="url(#dc2ea37506)"><path fill="#ffffff" d="M 183.355469 83.226562 C 182.992188 83.027344 182.550781 83.039062 182.199219 83.261719 L 160.90625 96.621094 L 160.90625 42.167969 C 160.90625 41.542969 160.402344 41.03125 159.773438 41.03125 L 64.769531 40.828125 C 64.765625 40.828125 64.765625 40.828125 64.765625 40.828125 C 64.464844 40.828125 64.175781 40.945312 63.964844 41.160156 C 63.75 41.371094 63.628906 41.660156 63.628906 41.964844 L 63.628906 96.515625 L 42.507812 83.261719 C 42.15625 83.042969 41.714844 83.03125 41.351562 83.226562 C 40.992188 83.429688 40.765625 83.808594 40.765625 84.222656 L 40.765625 133.253906 C 40.765625 133.683594 41.007812 134.078125 41.394531 134.269531 L 64.585938 145.921875 L 64.574219 170.148438 C 64.574219 170.449219 64.691406 170.738281 64.90625 170.953125 C 65.121094 171.164062 65.40625 171.285156 65.707031 171.285156 L 86.382812 171.285156 C 86.71875 172.199219 87.296875 173.019531 88.054688 173.65625 C 89.074219 174.507812 90.367188 174.980469 91.707031 174.980469 C 92.246094 174.980469 92.769531 174.882812 93.277344 174.734375 C 93.378906 176.246094 94.078125 177.691406 95.300781 178.707031 C 96.328125 179.558594 97.617188 180.023438 98.933594 180.023438 C 99.808594 180.023438 100.65625 179.820312 101.421875 179.449219 C 101.671875 180.691406 102.324219 181.839844 103.34375 182.683594 C 104.371094 183.53125 105.664062 184 106.976562 184 C 108.664062 184 110.25 183.261719 111.335938 181.96875 L 113.742188 179.109375 C 114.652344 179.839844 116.089844 180.667969 117.953125 180.667969 C 118.070312 180.667969 118.183594 180.664062 118.300781 180.65625 C 120.371094 180.542969 121.808594 179.472656 122.515625 178.808594 L 123.324219 177.988281 C 124.246094 177.050781 124.820312 175.851562 124.988281 174.589844 C 125.695312 174.855469 126.441406 174.988281 127.191406 174.988281 C 128.804688 174.988281 130.414062 174.371094 131.605469 173.152344 L 132.417969 172.328125 C 132.730469 172.007812 132.988281 171.652344 133.214844 171.285156 L 159.011719 171.285156 C 159.3125 171.285156 159.601562 171.164062 159.8125 170.953125 C 160.027344 170.738281 160.148438 170.449219 160.148438 170.148438 L 160.125 145.917969 L 183.316406 134.269531 C 183.699219 134.074219 183.941406 133.683594 183.941406 133.253906 L 183.941406 84.222656 C 183.941406 83.808594 183.71875 83.429688 183.355469 83.226562 Z M 65.902344 43.101562 L 158.636719 43.300781 L 158.636719 98.050781 L 136.464844 111.964844 C 136.203125 112.128906 136.019531 112.390625 135.957031 112.691406 C 135.894531 112.996094 135.957031 113.308594 136.128906 113.5625 L 137.410156 115.453125 L 134.890625 117.304688 C 133.910156 116.144531 132.511719 115.332031 130.882812 115.035156 L 122.015625 113.453125 C 120.210938 113.136719 118.378906 113.125 116.570312 113.417969 L 90.359375 117.703125 L 87.296875 115.453125 L 88.578125 113.566406 C 88.753906 113.308594 88.816406 112.996094 88.75 112.695312 C 88.6875 112.390625 88.503906 112.128906 88.242188 111.964844 L 65.902344 97.941406 Z M 139.425781 158.371094 C 139.136719 157.066406 138.414062 155.867188 137.3125 154.980469 C 134.191406 152.472656 130.726562 149.632812 127.285156 146.808594 C 124.730469 144.714844 122.199219 142.636719 119.8125 140.699219 C 120.203125 140.71875 120.59375 140.734375 120.988281 140.734375 C 122.515625 140.734375 124.042969 140.609375 125.558594 140.363281 C 129.152344 139.777344 132.566406 138.519531 135.703125 136.625 C 136.238281 136.300781 136.410156 135.601562 136.085938 135.0625 C 135.761719 134.527344 135.066406 134.355469 134.527344 134.679688 C 131.640625 136.425781 128.5 137.582031 125.195312 138.121094 C 121.90625 138.65625 118.5625 138.558594 115.265625 137.835938 C 115.253906 137.832031 115.238281 137.832031 115.226562 137.828125 C 114.75 137.671875 114.277344 137.550781 113.835938 137.488281 C 111.824219 137.128906 109.78125 137.40625 107.929688 138.28125 C 107.105469 138.667969 106.363281 138.992188 105.707031 139.28125 L 105.453125 139.390625 C 99.90625 141.761719 98.160156 141.71875 97.40625 141.683594 C 94.460938 141.617188 92.757812 141.058594 92.34375 140.011719 C 92.074219 139.335938 92.320312 138.332031 93.011719 137.328125 C 93.484375 136.632812 94.207031 136.007812 95.15625 135.476562 L 112.527344 125.875 L 118.046875 125.375 C 125.050781 127.722656 130.597656 126.761719 133.464844 125.058594 C 134.589844 124.390625 135.394531 123.566406 135.851562 122.644531 L 151.511719 145.214844 C 149.984375 147.421875 148.289062 149.578125 146.449219 151.632812 C 144.28125 154.042969 141.921875 156.296875 139.425781 158.371094 Z M 71.542969 143.609375 L 69.304688 141.960938 L 86.019531 117.335938 L 88.507812 119.164062 Z M 66.855469 145.570312 L 68.027344 143.84375 L 71.019531 146.046875 C 72.898438 148.46875 74.929688 150.863281 77.066406 153.160156 C 78.667969 154.902344 80.363281 156.601562 82.097656 158.238281 L 80.40625 160.261719 C 79.433594 161.421875 78.96875 162.886719 79.105469 164.394531 C 79.238281 165.902344 79.953125 167.269531 81.121094 168.242188 C 81.507812 168.5625 81.941406 168.808594 82.390625 169.015625 L 66.84375 169.015625 Z M 90.789062 161.792969 C 90.65625 162.085938 90.484375 162.355469 90.289062 162.589844 L 87.394531 166.054688 C 87.203125 166.273438 87.042969 166.425781 86.894531 166.535156 C 86.851562 166.566406 86.8125 166.601562 86.773438 166.636719 C 85.550781 167.507812 83.746094 167.460938 82.574219 166.492188 C 81.875 165.910156 81.449219 165.09375 81.367188 164.191406 C 81.289062 163.292969 81.566406 162.417969 82.148438 161.722656 L 84.472656 158.941406 C 84.476562 158.9375 84.480469 158.9375 84.484375 158.933594 C 84.492188 158.925781 84.496094 158.917969 84.5 158.910156 L 85.058594 158.246094 C 85.707031 157.46875 86.664062 157.023438 87.675781 157.023438 C 88.46875 157.023438 89.25 157.308594 89.867188 157.816406 C 91.03125 158.789062 91.410156 160.433594 90.789062 161.792969 Z M 89.515625 171.914062 C 88.910156 171.40625 88.5 170.707031 88.359375 169.9375 C 88.242188 169.324219 88.304688 168.707031 88.523438 168.128906 C 88.71875 167.960938 88.914062 167.773438 89.125 167.527344 L 92.035156 164.046875 C 92.28125 163.75 92.492188 163.414062 92.679688 163.066406 C 93.882812 162.238281 95.65625 162.289062 96.808594 163.242188 C 97.933594 164.171875 98.328125 165.710938 97.789062 167.082031 C 97.664062 167.414062 97.480469 167.722656 97.234375 168.023438 L 94.339844 171.46875 C 94.214844 171.613281 94.089844 171.746094 93.949219 171.871094 C 92.71875 172.9375 90.746094 172.949219 89.515625 171.914062 Z M 96.75 176.957031 C 95.679688 176.070312 95.277344 174.628906 95.703125 173.320312 C 95.820312 173.199219 95.945312 173.089844 96.066406 172.949219 L 98.980469 169.476562 C 99.300781 169.085938 99.546875 168.667969 99.746094 168.238281 C 100.949219 167.296875 102.832031 167.285156 104.039062 168.285156 C 105.078125 169.144531 105.5 170.542969 105.121094 171.847656 C 105.121094 171.855469 105.109375 171.863281 105.109375 171.875 C 104.976562 172.304688 104.753906 172.714844 104.472656 173.054688 L 101.757812 176.28125 C 101.746094 176.292969 101.746094 176.304688 101.738281 176.316406 L 101.550781 176.53125 C 100.394531 177.910156 98.164062 178.125 96.75 176.957031 Z M 109.597656 180.507812 C 108.441406 181.886719 106.210938 182.105469 104.792969 180.933594 C 103.789062 180.101562 103.371094 178.785156 103.675781 177.53125 L 106.214844 174.511719 C 106.625 174.019531 106.933594 173.4375 107.160156 172.828125 L 107.28125 172.6875 C 108.4375 171.3125 110.679688 171.105469 112.085938 172.265625 C 113.429688 173.375 113.695312 175.363281 112.65625 176.855469 C 112.632812 176.898438 112.597656 176.933594 112.519531 177.03125 Z M 129.984375 171.5625 C 128.53125 173.046875 126.105469 173.113281 124.511719 171.675781 C 124.484375 171.648438 124.457031 171.621094 124.421875 171.597656 L 107.886719 156.335938 C 107.429688 155.914062 106.707031 155.941406 106.28125 156.402344 C 105.855469 156.863281 105.882812 157.582031 106.347656 158.007812 L 122.695312 173.085938 C 122.933594 174.269531 122.570312 175.515625 121.707031 176.398438 L 120.929688 177.183594 C 120.570312 177.519531 119.582031 178.3125 118.175781 178.390625 C 116.761719 178.453125 115.683594 177.785156 115.042969 177.242188 C 116.097656 174.960938 115.527344 172.160156 113.535156 170.515625 C 112.5 169.660156 111.242188 169.207031 109.898438 169.207031 C 109.023438 169.207031 108.175781 169.410156 107.410156 169.777344 C 107.160156 168.53125 106.507812 167.378906 105.488281 166.535156 C 104.050781 165.347656 102.050781 165.027344 100.28125 165.503906 C 100.191406 163.980469 99.496094 162.515625 98.261719 161.492188 C 96.910156 160.375 95.035156 160.015625 93.339844 160.378906 C 93.320312 158.753906 92.625 157.164062 91.320312 156.074219 C 90.289062 155.222656 88.996094 154.753906 87.675781 154.753906 C 86.121094 154.753906 84.648438 155.390625 83.574219 156.511719 C 81.910156 154.929688 80.28125 153.300781 78.734375 151.617188 C 76.792969 149.53125 74.953125 147.359375 73.230469 145.167969 L 90.730469 119.949219 L 116.933594 115.664062 C 118.492188 115.410156 120.070312 115.421875 121.621094 115.695312 L 130.476562 117.273438 C 131.878906 117.53125 133.023438 118.324219 133.621094 119.449219 C 133.652344 119.503906 133.683594 119.554688 133.71875 119.601562 C 133.710938 119.589844 133.691406 119.5625 133.691406 119.5625 C 133.691406 119.5625 133.691406 119.5625 133.691406 119.566406 C 133.976562 120.160156 134.074219 120.664062 133.996094 121.113281 C 133.875 121.824219 133.277344 122.53125 132.308594 123.105469 C 129.957031 124.5 124.945312 125.347656 118.554688 123.148438 C 118.402344 123.097656 118.242188 123.078125 118.082031 123.089844 L 112.082031 123.636719 C 111.925781 123.652344 111.773438 123.699219 111.636719 123.773438 L 94.046875 133.492188 C 92.785156 134.203125 91.804688 135.066406 91.136719 136.046875 C 90 137.703125 89.671875 139.457031 90.234375 140.855469 C 91.410156 143.824219 95.730469 143.921875 97.347656 143.957031 C 97.4375 143.960938 97.535156 143.964844 97.632812 143.964844 C 99.121094 143.964844 101.390625 143.601562 106.359375 141.476562 L 106.617188 141.363281 C 107.292969 141.070312 108.054688 140.734375 108.898438 140.339844 C 110.3125 139.671875 111.867188 139.460938 113.429688 139.726562 C 113.800781 139.824219 114.21875 139.929688 114.691406 140.039062 C 115.5 140.332031 116.238281 140.742188 116.882812 141.253906 C 119.679688 143.507812 122.753906 146.03125 125.847656 148.566406 C 129.296875 151.394531 132.765625 154.242188 135.890625 156.753906 C 137.019531 157.664062 137.523438 159.089844 137.199219 160.488281 C 137.027344 161.28125 136.601562 161.984375 135.898438 162.59375 C 135.074219 163.421875 133.695312 164.136719 132.75 164.320312 C 132.566406 164.09375 132.375 163.886719 132.183594 163.714844 L 116.410156 149.167969 C 115.949219 148.746094 115.230469 148.773438 114.804688 149.234375 C 114.378906 149.695312 114.410156 150.414062 114.871094 150.839844 L 130.65625 165.398438 C 130.867188 165.585938 131.070312 165.828125 131.269531 166.125 C 131.957031 167.1875 132.054688 168.519531 131.527344 169.683594 C 131.351562 170.066406 131.105469 170.425781 130.796875 170.742188 Z M 134.0625 169.011719 C 134.191406 168.132812 134.125 167.238281 133.867188 166.386719 C 135.238281 165.96875 136.613281 165.09375 137.441406 164.253906 C 138.339844 163.484375 138.960938 162.503906 139.285156 161.40625 C 142.464844 158.921875 145.445312 156.148438 148.140625 153.148438 C 150.179688 150.871094 152.054688 148.472656 153.722656 146.023438 L 156.679688 143.84375 L 157.851562 145.570312 L 157.871094 169.011719 Z M 181.667969 132.550781 L 159.367188 143.757812 L 138.667969 113.261719 L 181.667969 86.277344 Z M 181.667969 132.550781 " fill-opacity="1" fill-rule="nonzero"/></g><path fill="#ffffff" d="M 106.933594 59.292969 L 136.738281 59.292969 C 137.367188 59.292969 137.875 58.78125 137.875 58.15625 C 137.875 57.527344 137.367188 57.019531 136.738281 57.019531 L 106.933594 57.019531 C 106.304688 57.019531 105.796875 57.527344 105.796875 58.15625 C 105.796875 58.78125 106.308594 59.292969 106.933594 59.292969 Z M 106.933594 59.292969 " fill-opacity="1" fill-rule="nonzero"/><path fill="#ffffff" d="M 102.867188 68.734375 L 143.511719 68.734375 C 144.140625 68.734375 144.648438 68.226562 144.648438 67.597656 C 144.648438 66.972656 144.140625 66.460938 143.511719 66.460938 L 102.867188 66.460938 C 102.238281 66.460938 101.730469 66.972656 101.730469 67.597656 C 101.730469 68.226562 102.238281 68.734375 102.867188 68.734375 Z M 102.867188 68.734375 " fill-opacity="1" fill-rule="nonzero"/><path fill="#ffffff" d="M 82.550781 85.359375 C 81.921875 85.359375 81.414062 85.867188 81.414062 86.496094 C 81.414062 87.121094 81.921875 87.632812 82.550781 87.632812 L 142.160156 87.632812 C 142.789062 87.632812 143.296875 87.121094 143.296875 86.496094 C 143.296875 85.867188 142.789062 85.359375 142.160156 85.359375 Z M 82.550781 85.359375 " fill-opacity="1" fill-rule="nonzero"/><path fill="#ffffff" d="M 143.296875 97.289062 C 143.296875 96.664062 142.789062 96.152344 142.160156 96.152344 L 79.832031 96.152344 C 79.203125 96.152344 78.695312 96.664062 78.695312 97.289062 C 78.695312 97.917969 79.203125 98.425781 79.832031 98.425781 L 142.160156 98.425781 C 142.789062 98.425781 143.296875 97.917969 143.296875 97.289062 Z M 143.296875 97.289062 " fill-opacity="1" fill-rule="nonzero"/><path fill="#ffffff" d="M 131.320312 105.597656 L 98.808594 105.597656 C 98.179688 105.597656 97.671875 106.105469 97.671875 106.734375 C 97.671875 107.359375 98.179688 107.867188 98.808594 107.867188 L 131.320312 107.867188 C 131.945312 107.867188 132.457031 107.359375 132.457031 106.734375 C 132.457031 106.105469 131.945312 105.597656 131.320312 105.597656 Z M 131.320312 105.597656 " fill-opacity="1" fill-rule="nonzero"/><path fill="#ffffff" d="M 79.933594 72.65625 L 81.445312 75.179688 C 81.972656 76.042969 82.890625 76.558594 83.90625 76.558594 C 83.910156 76.558594 83.914062 76.558594 83.914062 76.558594 C 84.929688 76.554688 85.84375 76.035156 86.367188 75.167969 L 87.859375 72.671875 C 87.996094 72.441406 88.265625 72.328125 88.523438 72.394531 L 91.363281 73.097656 C 92.355469 73.347656 93.375 73.066406 94.097656 72.347656 C 94.8125 71.628906 95.089844 70.617188 94.84375 69.625 L 94.128906 66.800781 C 94.066406 66.554688 94.183594 66.289062 94.410156 66.152344 L 96.914062 64.652344 C 97.789062 64.132812 98.3125 63.214844 98.3125 62.203125 C 98.3125 61.1875 97.789062 60.269531 96.914062 59.746094 L 94.394531 58.242188 C 94.171875 58.113281 94.066406 57.855469 94.128906 57.605469 L 94.84375 54.773438 C 95.089844 53.792969 94.8125 52.777344 94.097656 52.0625 C 93.375 51.339844 92.359375 51.054688 91.359375 51.304688 L 88.527344 52.007812 C 88.265625 52.066406 87.996094 51.960938 87.863281 51.742188 L 86.363281 49.242188 C 85.84375 48.375 84.925781 47.859375 83.914062 47.855469 C 83.914062 47.855469 83.910156 47.855469 83.90625 47.855469 C 82.890625 47.855469 81.972656 48.371094 81.441406 49.238281 L 79.945312 51.730469 C 79.804688 51.957031 79.53125 52.070312 79.28125 52.007812 L 76.441406 51.304688 C 75.457031 51.054688 74.433594 51.339844 73.710938 52.0625 C 72.992188 52.78125 72.710938 53.792969 72.960938 54.773438 L 73.675781 57.597656 C 73.738281 57.855469 73.628906 58.113281 73.398438 58.25 C 72.570312 58.75 71.730469 59.246094 70.882812 59.75 C 70.015625 60.273438 69.5 61.1875 69.5 62.199219 C 69.5 63.214844 70.015625 64.128906 70.890625 64.652344 C 71.730469 65.152344 72.570312 65.652344 73.394531 66.148438 C 73.621094 66.285156 73.738281 66.554688 73.675781 66.796875 L 72.960938 69.628906 C 72.714844 70.613281 72.992188 71.628906 73.710938 72.34375 C 74.433594 73.0625 75.449219 73.347656 76.4375 73.097656 L 79.277344 72.394531 C 79.53125 72.332031 79.808594 72.445312 79.933594 72.65625 Z M 75.886719 70.894531 C 75.589844 70.96875 75.386719 70.808594 75.316406 70.738281 C 75.230469 70.648438 75.09375 70.460938 75.160156 70.183594 L 75.878906 67.351562 C 76.183594 66.128906 75.660156 64.863281 74.566406 64.207031 C 73.738281 63.703125 72.894531 63.203125 72.054688 62.707031 C 71.796875 62.550781 71.769531 62.300781 71.769531 62.203125 C 71.769531 62.101562 71.796875 61.851562 72.050781 61.703125 C 72.894531 61.199219 73.734375 60.699219 74.554688 60.207031 C 75.652344 59.5625 76.1875 58.296875 75.878906 57.050781 L 75.160156 54.222656 C 75.089844 53.9375 75.246094 53.738281 75.316406 53.667969 C 75.390625 53.597656 75.589844 53.441406 75.886719 53.511719 L 78.730469 54.214844 C 79.957031 54.515625 81.222656 54 81.886719 52.914062 L 83.378906 50.421875 C 83.542969 50.160156 83.800781 50.128906 83.90625 50.128906 C 83.976562 50.152344 84.261719 50.15625 84.414062 50.414062 L 85.921875 52.925781 C 86.582031 54 87.847656 54.515625 89.074219 54.214844 L 91.910156 53.511719 C 92.214844 53.4375 92.410156 53.597656 92.484375 53.667969 C 92.554688 53.738281 92.710938 53.933594 92.636719 54.222656 L 91.921875 57.058594 C 91.613281 58.296875 92.148438 59.5625 93.238281 60.203125 L 95.75 61.703125 C 96 61.851562 96.039062 62.082031 96.039062 62.203125 C 96.039062 62.324219 96 62.554688 95.75 62.703125 L 93.238281 64.203125 C 93.238281 64.207031 93.234375 64.207031 93.230469 64.207031 C 92.140625 64.867188 91.617188 66.128906 91.921875 67.355469 L 92.636719 70.183594 C 92.707031 70.464844 92.574219 70.652344 92.484375 70.742188 C 92.414062 70.8125 92.210938 70.972656 91.910156 70.894531 L 89.066406 70.191406 C 87.84375 69.882812 86.582031 70.40625 85.910156 71.496094 L 84.414062 74.003906 C 84.261719 74.257812 84.007812 74.285156 83.90625 74.285156 C 83.835938 74.308594 83.542969 74.261719 83.386719 74.007812 L 81.878906 71.480469 C 81.34375 70.609375 80.414062 70.105469 79.425781 70.105469 C 79.195312 70.105469 78.960938 70.132812 78.730469 70.191406 Z M 75.886719 70.894531 " fill-opacity="1" fill-rule="nonzero"/></svg>