<svg xmlns="http://www.w3.org/2000/svg" xmlns:xlink="http://www.w3.org/1999/xlink" width="300" zoomAndPan="magnify" viewBox="0 0 224.87999 225" height="300" preserveAspectRatio="xMidYMid meet" version="1.0"><defs><clipPath id="94327845b0"><path d="M 0 0.0585938 L 224.761719 0.0585938 L 224.761719 224.9375 L 0 224.9375 Z M 0 0.0585938 " clip-rule="nonzero"/></clipPath><clipPath id="1a2fd24d55"><path d="M 112.441406 0.0585938 C 50.339844 0.0585938 0 50.402344 0 112.5 C 0 174.597656 50.339844 224.941406 112.441406 224.941406 C 174.539062 224.941406 224.878906 174.597656 224.878906 112.5 C 224.878906 50.402344 174.539062 0.0585938 112.441406 0.0585938 " clip-rule="nonzero"/></clipPath><clipPath id="057c74805a"><path d="M 38.488281 44.742188 L 186.160156 44.742188 L 186.160156 180.421875 L 38.488281 180.421875 Z M 38.488281 44.742188 " clip-rule="nonzero"/></clipPath></defs><g clip-path="url(#94327845b0)"><g clip-path="url(#1a2fd24d55)"><path fill="#004aad" d="M 0 0.0585938 L 224.878906 0.0585938 L 224.878906 224.941406 L 0 224.941406 Z M 0 0.0585938 " fill-opacity="1" fill-rule="nonzero"/></g></g><g clip-path="url(#057c74805a)"><path fill="#ffffff" d="M 43.648438 85.480469 C 43.648438 65.78125 63.488281 49.753906 87.875 49.753906 C 112.265625 49.753906 132.105469 65.78125 132.105469 85.480469 C 132.105469 86.730469 132 88.03125 131.796875 89.40625 C 129.40625 89.617188 127.09375 90.011719 124.820312 90.492188 C 124.4375 90.582031 124.042969 90.648438 123.65625 90.746094 C 122.8125 90.9375 121.988281 91.15625 121.164062 91.390625 C 120.492188 91.570312 119.828125 91.785156 119.15625 91.996094 C 118.5625 92.1875 117.957031 92.371094 117.382812 92.59375 C 107.484375 96.132812 99.316406 102.285156 94.105469 110.078125 C 93.886719 110.398438 93.683594 110.722656 93.472656 111.050781 C 93.050781 111.726562 92.667969 112.398438 92.28125 113.089844 C 92.003906 113.609375 91.726562 114.132812 91.464844 114.660156 C 91.265625 115.074219 91.082031 115.496094 90.898438 115.921875 C 90.140625 117.625 89.5 119.375 89.027344 121.175781 C 83.5 121.398438 77.835938 120.550781 72.441406 118.914062 C 71.914062 118.761719 71.339844 118.78125 70.820312 118.980469 L 45.339844 129.203125 L 52.585938 108.867188 C 52.890625 108.019531 52.699219 107.066406 52.09375 106.394531 C 46.566406 100.234375 43.648438 93.007812 43.648438 85.480469 Z M 134.023438 94.226562 C 135.023438 94.171875 136.011719 94.101562 137.019531 94.101562 C 161.40625 94.101562 181.246094 110.128906 181.246094 129.828125 C 181.246094 137.355469 178.328125 144.582031 172.800781 150.742188 C 172.195312 151.414062 172.003906 152.367188 172.308594 153.214844 L 179.558594 173.558594 L 154.074219 163.328125 C 153.785156 163.214844 153.46875 163.15625 153.164062 163.15625 C 152.921875 163.15625 152.683594 163.195312 152.453125 163.261719 C 147.421875 164.78125 142.230469 165.550781 137.019531 165.550781 C 112.628906 165.550781 92.789062 149.527344 92.789062 129.828125 C 92.789062 127.84375 93.039062 125.921875 93.433594 124.023438 C 93.625 123.035156 93.886719 122.070312 94.183594 121.109375 C 94.203125 121.03125 94.230469 120.945312 94.257812 120.867188 C 94.539062 119.972656 94.863281 119.097656 95.230469 118.242188 C 95.304688 118.046875 95.402344 117.855469 95.488281 117.664062 C 95.824219 116.902344 96.179688 116.160156 96.574219 115.429688 C 96.820312 114.976562 97.101562 114.535156 97.371094 114.09375 C 97.65625 113.621094 97.925781 113.140625 98.234375 112.6875 C 99.566406 110.722656 101.113281 108.875 102.859375 107.164062 C 102.90625 107.113281 102.964844 107.066406 103.003906 107.019531 C 103.847656 106.210938 104.730469 105.421875 105.660156 104.671875 C 105.738281 104.601562 105.824219 104.535156 105.902344 104.476562 C 106.804688 103.746094 107.746094 103.0625 108.722656 102.398438 C 108.839844 102.332031 108.945312 102.253906 109.050781 102.1875 C 110.011719 101.550781 111.007812 100.945312 112.035156 100.378906 C 112.167969 100.3125 112.292969 100.222656 112.4375 100.148438 C 113.464844 99.589844 114.53125 99.078125 115.613281 98.589844 C 115.75 98.53125 115.882812 98.453125 116.027344 98.394531 C 117.160156 97.894531 118.320312 97.453125 119.511719 97.039062 C 120.355469 96.738281 121.230469 96.488281 122.101562 96.238281 C 122.421875 96.144531 122.738281 96.046875 123.054688 95.960938 C 124.070312 95.691406 125.097656 95.449219 126.144531 95.238281 C 126.328125 95.210938 126.5 95.160156 126.671875 95.132812 C 127.796875 94.910156 128.945312 94.730469 130.097656 94.585938 C 130.175781 94.574219 130.242188 94.566406 130.308594 94.554688 C 131.527344 94.410156 132.757812 94.296875 134.015625 94.226562 C 134.015625 94.226562 134.023438 94.226562 134.023438 94.226562 Z M 38.878906 132.695312 C 38.550781 133.609375 38.792969 134.628906 39.484375 135.292969 C 39.953125 135.746094 40.566406 135.988281 41.191406 135.988281 C 41.5 135.988281 41.804688 135.929688 42.105469 135.8125 L 71.859375 123.878906 C 77.15625 125.402344 82.683594 126.113281 88.105469 126.066406 C 87.964844 127.304688 87.875 128.558594 87.875 129.828125 C 87.875 152.242188 109.921875 170.480469 137.019531 170.480469 C 142.433594 170.480469 147.816406 169.71875 153.039062 168.226562 L 182.792969 180.160156 C 183.089844 180.277344 183.394531 180.335938 183.703125 180.335938 C 184.328125 180.335938 184.941406 180.09375 185.410156 179.640625 C 186.101562 178.976562 186.34375 177.957031 186.015625 177.042969 L 177.425781 152.917969 C 183.148438 146.082031 186.160156 138.132812 186.160156 129.828125 C 186.160156 107.414062 164.113281 89.175781 137.019531 89.175781 C 136.933594 89.175781 136.855469 89.183594 136.769531 89.183594 C 136.921875 87.914062 137.019531 86.671875 137.019531 85.480469 C 137.019531 63.066406 114.972656 44.828125 87.875 44.828125 C 60.78125 44.828125 38.734375 63.066406 38.734375 85.480469 C 38.734375 93.785156 41.75 101.734375 47.46875 108.566406 L 38.878906 132.695312 " fill-opacity="1" fill-rule="nonzero"/></g><path fill="#ffffff" d="M 109.992188 116.277344 L 164.046875 116.277344 L 164.046875 111.347656 L 109.992188 111.347656 L 109.992188 116.277344 " fill-opacity="1" fill-rule="nonzero"/><path fill="#ffffff" d="M 109.992188 126.132812 L 164.046875 126.132812 L 164.046875 121.203125 L 109.992188 121.203125 L 109.992188 126.132812 " fill-opacity="1" fill-rule="nonzero"/><path fill="#ffffff" d="M 109.992188 135.988281 L 164.046875 135.988281 L 164.046875 131.058594 L 109.992188 131.058594 L 109.992188 135.988281 " fill-opacity="1" fill-rule="nonzero"/><path fill="#ffffff" d="M 109.992188 145.84375 L 164.046875 145.84375 L 164.046875 140.914062 L 109.992188 140.914062 L 109.992188 145.84375 " fill-opacity="1" fill-rule="nonzero"/><path fill="#ffffff" d="M 82.644531 81.4375 C 82.464844 80.746094 82.367188 80.03125 82.367188 79.320312 C 82.367188 77.183594 83.191406 75.183594 84.699219 73.671875 C 87.800781 70.5625 92.867188 70.5625 95.96875 73.671875 C 99.191406 76.914062 99.402344 82.179688 96.429688 85.652344 L 91.339844 91.601562 C 89.105469 94.21875 87.875 97.546875 87.875 100.992188 L 87.875 101.496094 L 92.789062 101.496094 L 92.789062 100.992188 C 92.789062 98.730469 93.605469 96.527344 95.074219 94.804688 L 100.164062 88.859375 C 104.789062 83.441406 104.480469 75.238281 99.441406 70.1875 C 94.414062 65.152344 86.246094 65.152344 81.226562 70.1875 C 78.789062 72.632812 77.453125 75.875 77.453125 79.320312 C 77.453125 80.476562 77.605469 81.621094 77.90625 82.726562 L 82.644531 81.4375 " fill-opacity="1" fill-rule="nonzero"/><path fill="#ffffff" d="M 87.875 111.347656 L 92.789062 111.347656 L 92.789062 106.421875 L 87.875 106.421875 L 87.875 111.347656 " fill-opacity="1" fill-rule="nonzero"/></svg>