<svg xmlns="http://www.w3.org/2000/svg" xmlns:xlink="http://www.w3.org/1999/xlink" width="300" zoomAndPan="magnify" viewBox="0 0 224.87999 225" height="300" preserveAspectRatio="xMidYMid meet" version="1.0"><defs><clipPath id="621728b342"><path d="M 0 0.0585938 L 224.761719 0.0585938 L 224.761719 224.9375 L 0 224.9375 Z M 0 0.0585938 " clip-rule="nonzero"/></clipPath><clipPath id="83302d1bd1"><path d="M 0 0.0585938 L 224.761719 0.0585938 L 224.761719 224.9375 L 0 224.9375 Z M 0 0.0585938 " clip-rule="nonzero"/></clipPath><clipPath id="ecd03c9bf7"><path d="M 112.441406 0.0585938 C 50.339844 0.0585938 0 50.402344 0 112.5 C 0 174.597656 50.339844 224.941406 112.441406 224.941406 C 174.539062 224.941406 224.878906 174.597656 224.878906 112.5 C 224.878906 50.402344 174.539062 0.0585938 112.441406 0.0585938 " clip-rule="nonzero"/></clipPath><clipPath id="ce97c5851b"><path d="M 53.371094 40.828125 L 171.808594 40.828125 L 171.808594 184 L 53.371094 184 Z M 53.371094 40.828125 " clip-rule="nonzero"/></clipPath></defs><g clip-path="url(#621728b342)"><path fill="#ffffff" d="M 0 0.0585938 L 224.878906 0.0585938 L 224.878906 224.941406 L 0 224.941406 Z M 0 0.0585938 " fill-opacity="1" fill-rule="nonzero"/><path fill="#ffffff" d="M 0 0.0585938 L 224.878906 0.0585938 L 224.878906 224.941406 L 0 224.941406 Z M 0 0.0585938 " fill-opacity="1" fill-rule="nonzero"/></g><g clip-path="url(#83302d1bd1)"><g clip-path="url(#ecd03c9bf7)"><path fill="#178429" d="M 0 0.0585938 L 224.878906 0.0585938 L 224.878906 224.941406 L 0 224.941406 Z M 0 0.0585938 " fill-opacity="1" fill-rule="nonzero"/></g></g><path fill="#ffffff" d="M 81.664062 110.378906 C 81.664062 110.847656 81.285156 111.226562 80.816406 111.226562 L 73.421875 111.226562 C 72.953125 111.226562 72.570312 110.847656 72.570312 110.378906 L 72.570312 103.015625 C 72.570312 102.546875 72.953125 102.164062 73.421875 102.164062 L 80.816406 102.164062 C 81.285156 102.164062 81.664062 102.546875 81.664062 103.015625 Z M 80.816406 99.070312 L 73.421875 99.070312 C 71.238281 99.070312 69.464844 100.839844 69.464844 103.015625 L 69.464844 110.378906 C 69.464844 112.554688 71.238281 114.320312 73.421875 114.320312 L 80.816406 114.320312 C 83 114.320312 84.773438 112.554688 84.773438 110.378906 L 84.773438 103.015625 C 84.773438 100.839844 83 99.070312 80.816406 99.070312 " fill-opacity="1" fill-rule="nonzero"/><path fill="#ffffff" d="M 92.132812 105.148438 C 91.277344 105.148438 90.582031 105.839844 90.582031 106.695312 C 90.582031 107.550781 91.277344 108.242188 92.132812 108.242188 L 143.519531 108.242188 C 144.378906 108.242188 145.074219 107.550781 145.074219 106.695312 C 145.074219 105.839844 144.378906 105.148438 143.519531 105.148438 L 92.132812 105.148438 " fill-opacity="1" fill-rule="nonzero"/><path fill="#ffffff" d="M 81.664062 133.757812 C 81.664062 134.222656 81.285156 134.605469 80.816406 134.605469 L 73.421875 134.605469 C 72.953125 134.605469 72.570312 134.222656 72.570312 133.757812 L 72.570312 126.390625 C 72.570312 125.921875 72.953125 125.542969 73.421875 125.542969 L 80.816406 125.542969 C 81.285156 125.542969 81.664062 125.921875 81.664062 126.390625 Z M 80.816406 122.445312 L 73.421875 122.445312 C 71.238281 122.445312 69.464844 124.214844 69.464844 126.390625 L 69.464844 133.757812 C 69.464844 135.929688 71.238281 137.699219 73.421875 137.699219 L 80.816406 137.699219 C 83 137.699219 84.773438 135.929688 84.773438 133.757812 L 84.773438 126.390625 C 84.773438 124.214844 83 122.445312 80.816406 122.445312 " fill-opacity="1" fill-rule="nonzero"/><path fill="#ffffff" d="M 143.519531 128.527344 L 92.132812 128.527344 C 91.277344 128.527344 90.582031 129.21875 90.582031 130.074219 C 90.582031 130.925781 91.277344 131.621094 92.132812 131.621094 L 143.519531 131.621094 C 144.378906 131.621094 145.074219 130.925781 145.074219 130.074219 C 145.074219 129.21875 144.378906 128.527344 143.519531 128.527344 " fill-opacity="1" fill-rule="nonzero"/><path fill="#ffffff" d="M 81.664062 157.132812 C 81.664062 157.601562 81.285156 157.980469 80.816406 157.980469 L 73.421875 157.980469 C 72.953125 157.980469 72.570312 157.601562 72.570312 157.132812 L 72.570312 149.769531 C 72.570312 149.300781 72.953125 148.917969 73.421875 148.917969 L 80.816406 148.917969 C 81.285156 148.917969 81.664062 149.300781 81.664062 149.769531 Z M 80.816406 145.824219 L 73.421875 145.824219 C 71.238281 145.824219 69.464844 147.59375 69.464844 149.769531 L 69.464844 157.132812 C 69.464844 159.308594 71.238281 161.078125 73.421875 161.078125 L 80.816406 161.078125 C 83 161.078125 84.773438 159.308594 84.773438 157.132812 L 84.773438 149.769531 C 84.773438 147.59375 83 145.824219 80.816406 145.824219 " fill-opacity="1" fill-rule="nonzero"/><path fill="#ffffff" d="M 143.519531 151.902344 L 92.132812 151.902344 C 91.277344 151.902344 90.582031 152.59375 90.582031 153.449219 C 90.582031 154.304688 91.277344 154.996094 92.132812 154.996094 L 143.519531 154.996094 C 144.378906 154.996094 145.074219 154.304688 145.074219 153.449219 C 145.074219 152.59375 144.378906 151.902344 143.519531 151.902344 " fill-opacity="1" fill-rule="nonzero"/><g clip-path="url(#ce97c5851b)"><path fill="#ffffff" d="M 146.859375 85.847656 C 145.972656 87.164062 144.566406 88.039062 142.992188 88.257812 C 142.738281 88.292969 142.484375 88.308594 142.226562 88.308594 C 140.910156 88.308594 139.628906 87.847656 138.617188 86.988281 L 124.101562 74.710938 C 121.753906 72.726562 121.46875 69.21875 123.460938 66.878906 C 125.457031 64.542969 128.972656 64.253906 131.320312 66.242188 L 141.074219 74.492188 L 154.128906 55.105469 C 155.84375 52.554688 159.308594 51.875 161.867188 53.585938 C 164.421875 55.292969 165.105469 58.746094 163.390625 61.292969 Z M 154.949219 167.695312 C 154.949219 173.253906 150.414062 177.773438 144.835938 177.773438 L 69.703125 177.773438 C 64.128906 177.773438 59.589844 173.253906 59.589844 167.695312 L 59.589844 93.386719 L 60.875 92.101562 L 75.558594 92.101562 C 82.859375 92.101562 88.78125 86.203125 88.78125 78.929688 L 88.78125 64.300781 L 90.066406 63.019531 L 115.890625 63.019531 C 115.464844 64.964844 115.226562 66.980469 115.226562 69.050781 C 115.226562 84.621094 127.894531 97.242188 143.519531 97.242188 C 147.589844 97.242188 151.453125 96.367188 154.949219 94.828125 Z M 171.8125 69.050781 C 171.8125 53.484375 159.148438 40.863281 143.519531 40.863281 C 132.296875 40.863281 122.625 47.390625 118.054688 56.828125 L 88.78125 56.828125 C 87.957031 56.828125 87.167969 57.15625 86.582031 57.734375 L 54.285156 89.914062 C 53.703125 90.492188 53.375 91.28125 53.375 92.101562 L 53.375 167.695312 C 53.375 176.667969 60.699219 183.964844 69.703125 183.964844 L 144.835938 183.964844 C 153.839844 183.964844 161.160156 176.667969 161.160156 167.695312 L 161.160156 91.070312 C 167.648438 85.90625 171.8125 77.96875 171.8125 69.050781 " fill-opacity="1" fill-rule="nonzero"/></g></svg>