<svg xmlns="http://www.w3.org/2000/svg" xmlns:xlink="http://www.w3.org/1999/xlink" width="300" zoomAndPan="magnify" viewBox="0 0 224.87999 225" height="300" preserveAspectRatio="xMidYMid meet" version="1.0"><defs><clipPath id="0fbcca21d3"><path d="M 0 0.0585938 L 224.761719 0.0585938 L 224.761719 224.9375 L 0 224.9375 Z M 0 0.0585938 " clip-rule="nonzero"/></clipPath><clipPath id="eb5ac699e4"><path d="M 112.441406 0.0585938 C 50.339844 0.0585938 0 50.402344 0 112.5 C 0 174.597656 50.339844 224.941406 112.441406 224.941406 C 174.539062 224.941406 224.878906 174.597656 224.878906 112.5 C 224.878906 50.402344 174.539062 0.0585938 112.441406 0.0585938 " clip-rule="nonzero"/></clipPath><clipPath id="cd56d5b97e"><path d="M 49 46.5625 L 160 46.5625 L 160 103 L 49 103 Z M 49 46.5625 " clip-rule="nonzero"/></clipPath><clipPath id="66a9b1dd47"><path d="M 49 139 L 160 139 L 160 178.492188 L 49 178.492188 Z M 49 139 " clip-rule="nonzero"/></clipPath><clipPath id="40de5887cf"><path d="M 40.765625 133 L 67 133 L 67 145 L 40.765625 145 Z M 40.765625 133 " clip-rule="nonzero"/></clipPath><clipPath id="a4db4400cd"><path d="M 40.765625 107 L 67 107 L 67 118 L 40.765625 118 Z M 40.765625 107 " clip-rule="nonzero"/></clipPath><clipPath id="46665d1e83"><path d="M 40.765625 80 L 67 80 L 67 92 L 40.765625 92 Z M 40.765625 80 " clip-rule="nonzero"/></clipPath><clipPath id="9322fd646d"><path d="M 158 112 L 183.941406 112 L 183.941406 138 L 158 138 Z M 158 112 " clip-rule="nonzero"/></clipPath></defs><g clip-path="url(#0fbcca21d3)"><g clip-path="url(#eb5ac699e4)"><path fill="#004aad" d="M 0 0.0585938 L 224.878906 0.0585938 L 224.878906 224.941406 L 0 224.941406 Z M 0 0.0585938 " fill-opacity="1" fill-rule="nonzero"/></g></g><path fill="#ffffff" d="M 49.195312 106.828125 L 55.503906 106.828125 L 55.503906 92.175781 L 49.195312 92.175781 L 49.195312 106.828125 " fill-opacity="1" fill-rule="nonzero"/><path fill="#ffffff" d="M 49.195312 133.28125 L 55.503906 133.28125 L 55.503906 118.625 L 49.195312 118.625 L 49.195312 133.28125 " fill-opacity="1" fill-rule="nonzero"/><g clip-path="url(#cd56d5b97e)"><path fill="#ffffff" d="M 159.941406 84.8125 L 159.941406 96.28125 C 157.824219 98.359375 155.707031 100.460938 153.609375 102.554688 L 153.609375 58.257812 C 153.609375 55.339844 151.253906 52.96875 148.332031 52.96875 L 60.796875 52.96875 C 57.875 52.96875 55.519531 55.339844 55.519531 58.257812 L 55.519531 80.371094 L 49.214844 80.371094 L 49.214844 58.257812 C 49.214844 51.851562 54.402344 46.65625 60.796875 46.65625 L 148.332031 46.65625 C 154.722656 46.65625 159.914062 51.851562 159.914062 58.257812 L 159.914062 84.8125 L 159.941406 84.8125 " fill-opacity="1" fill-rule="nonzero"/></g><g clip-path="url(#66a9b1dd47)"><path fill="#ffffff" d="M 156.59375 142.160156 C 157.664062 142.746094 158.78125 143.054688 159.941406 143.117188 L 159.941406 167.023438 C 159.941406 173.398438 154.722656 178.625 148.332031 178.625 L 60.796875 178.625 C 54.402344 178.625 49.214844 173.398438 49.214844 167.023438 L 49.214844 144.972656 L 55.519531 144.972656 L 55.519531 167.023438 C 55.519531 169.941406 57.875 172.308594 60.796875 172.308594 L 148.332031 172.308594 C 151.253906 172.308594 153.636719 169.941406 153.636719 167.023438 L 153.636719 147.3125 L 153.609375 147.3125 L 153.609375 140.375 L 154.007812 139.976562 C 154.679688 140.847656 155.546875 141.582031 156.59375 142.160156 " fill-opacity="1" fill-rule="nonzero"/></g><g clip-path="url(#40de5887cf)"><path fill="#ffffff" d="M 56.9375 136.347656 L 43.574219 136.347656 C 42.058594 136.347656 40.835938 137.5625 40.835938 139.082031 C 40.835938 140.597656 42.058594 141.804688 43.574219 141.804688 L 56.9375 141.804688 C 57.867188 143.375 59.574219 144.429688 61.53125 144.429688 C 64.480469 144.429688 66.882812 142.035156 66.882812 139.070312 C 66.882812 136.117188 64.480469 133.714844 61.53125 133.714844 C 59.574219 133.714844 57.867188 134.769531 56.9375 136.347656 " fill-opacity="1" fill-rule="nonzero"/></g><g clip-path="url(#a4db4400cd)"><path fill="#ffffff" d="M 56.945312 109.890625 L 43.574219 109.890625 C 42.058594 109.890625 40.835938 111.132812 40.835938 112.628906 C 40.835938 114.148438 42.058594 115.378906 43.574219 115.378906 L 56.945312 115.378906 C 57.882812 116.941406 59.585938 117.988281 61.53125 117.988281 C 64.480469 117.988281 66.882812 115.59375 66.882812 112.628906 C 66.882812 109.675781 64.480469 107.28125 61.53125 107.28125 C 59.585938 107.28125 57.882812 108.328125 56.945312 109.890625 " fill-opacity="1" fill-rule="nonzero"/></g><g clip-path="url(#46665d1e83)"><path fill="#ffffff" d="M 56.9375 83.476562 L 43.574219 83.476562 C 42.058594 83.476562 40.835938 84.691406 40.835938 86.1875 C 40.835938 87.707031 42.058594 88.921875 43.574219 88.921875 L 56.9375 88.921875 C 57.867188 90.5 59.574219 91.554688 61.53125 91.554688 C 64.480469 91.554688 66.882812 89.152344 66.882812 86.199219 C 66.882812 83.234375 64.480469 80.839844 61.53125 80.839844 C 59.574219 80.839844 57.867188 81.894531 56.9375 83.476562 " fill-opacity="1" fill-rule="nonzero"/></g><path fill="#ffffff" d="M 170.417969 115.59375 C 162.214844 123.824219 167.167969 118.757812 158.851562 127.078125 C 155.113281 123.265625 151.316406 120.054688 147.683594 116.347656 C 147.683594 116.320312 147.726562 116.167969 147.835938 116.054688 C 158.035156 105.863281 155.265625 108.675781 165.554688 98.5625 C 167.027344 97.097656 168.945312 95.953125 170.84375 95.066406 C 173.445312 93.816406 176.050781 94.660156 178.28125 96.9375 C 180.441406 99.121094 181.371094 101.640625 179.8125 104.433594 C 178.636719 106.527344 176.945312 108.335938 175.472656 110.261719 C 175.296875 110.5 175.074219 110.722656 174.84375 110.972656 L 174.109375 111.707031 L 170.417969 115.59375 " fill-opacity="1" fill-rule="nonzero"/><g clip-path="url(#9322fd646d)"><path fill="#ffffff" d="M 182.488281 116.285156 C 180.078125 118.757812 177.652344 121.171875 175.226562 123.628906 C 170.929688 127.929688 166.652344 132.261719 162.347656 136.5625 C 161.464844 137.457031 160.480469 137.929688 159.25 137.261719 C 158.203125 136.675781 157.824219 135.703125 158.160156 134.601562 C 158.363281 134 158.878906 133.464844 159.347656 132.996094 C 163.953125 128.332031 178.75 113.472656 179.28125 112.957031 C 180.546875 111.734375 181.824219 111.707031 182.824219 112.808594 C 183.71875 113.738281 183.605469 115.121094 182.488281 116.285156 " fill-opacity="1" fill-rule="nonzero"/></g><path fill="#ffffff" d="M 142.46875 68.015625 C 142.46875 69.398438 141.359375 70.515625 139.96875 70.515625 L 79.820312 70.515625 C 78.4375 70.515625 77.332031 69.398438 77.332031 68.015625 C 77.332031 66.628906 78.4375 65.511719 79.820312 65.511719 L 139.96875 65.511719 C 141.359375 65.511719 142.46875 66.628906 142.46875 68.015625 " fill-opacity="1" fill-rule="nonzero"/><path fill="#ffffff" d="M 142.46875 90.324219 C 142.46875 91.707031 141.359375 92.824219 139.96875 92.824219 L 79.820312 92.824219 C 78.4375 92.824219 77.332031 91.707031 77.332031 90.324219 C 77.332031 88.949219 78.4375 87.828125 79.820312 87.828125 L 139.96875 87.828125 C 141.359375 87.828125 142.46875 88.949219 142.46875 90.324219 " fill-opacity="1" fill-rule="nonzero"/><path fill="#ffffff" d="M 142.414062 112.125 C 141.414062 113.128906 140.414062 114.128906 139.414062 115.140625 L 79.8125 115.140625 C 78.4375 115.140625 77.324219 114.023438 77.324219 112.640625 C 77.324219 111.253906 78.4375 110.136719 79.8125 110.136719 L 139.96875 110.136719 C 141.175781 110.136719 142.175781 110.988281 142.414062 112.125 " fill-opacity="1" fill-rule="nonzero"/><path fill="#ffffff" d="M 155.894531 130.140625 C 155.894531 130.140625 130.777344 155.757812 126.527344 158.640625 C 126.527344 158.640625 117.28125 165.441406 112.625 165.175781 C 112.492188 165.222656 112.402344 165.238281 112.296875 165.222656 L 111.144531 166.445312 C 110.921875 166.695312 110.613281 166.800781 110.320312 166.800781 C 110.054688 166.800781 109.789062 166.71875 109.566406 166.515625 C 109.117188 166.109375 109.070312 165.398438 109.496094 164.929688 L 110.550781 163.8125 C 110.460938 163.5625 110.417969 163.324219 110.402344 163.074219 C 109.976562 158.410156 116.457031 148.953125 116.457031 148.953125 C 119.195312 144.597656 144.195312 118.894531 144.195312 118.894531 L 150.03125 124.453125 C 150.121094 124.453125 155.894531 130.140625 155.894531 130.140625 " fill-opacity="1" fill-rule="nonzero"/></svg>