<svg xmlns="http://www.w3.org/2000/svg" xmlns:xlink="http://www.w3.org/1999/xlink" width="300" zoomAndPan="magnify" viewBox="0 0 224.87999 225" height="300" preserveAspectRatio="xMidYMid meet" version="1.0"><defs><clipPath id="7f2389973f"><path d="M 0 0.0585938 L 224.761719 0.0585938 L 224.761719 224.9375 L 0 224.9375 Z M 0 0.0585938 " clip-rule="nonzero"/></clipPath><clipPath id="83f68a46d1"><path d="M 112.441406 0.0585938 C 50.339844 0.0585938 0 50.402344 0 112.5 C 0 174.597656 50.339844 224.941406 112.441406 224.941406 C 174.539062 224.941406 224.878906 174.597656 224.878906 112.5 C 224.878906 50.402344 174.539062 0.0585938 112.441406 0.0585938 " clip-rule="nonzero"/></clipPath><clipPath id="949b1be22f"><path d="M 105 46.527344 L 118 46.527344 L 118 59 L 105 59 Z M 105 46.527344 " clip-rule="nonzero"/></clipPath><clipPath id="a60abf5137"><path d="M 40.765625 58 L 183.941406 58 L 183.941406 178.457031 L 40.765625 178.457031 Z M 40.765625 58 " clip-rule="nonzero"/></clipPath></defs><g clip-path="url(#7f2389973f)"><g clip-path="url(#83f68a46d1)"><path fill="#004aad" d="M 0 0.0585938 L 224.878906 0.0585938 L 224.878906 224.941406 L 0 224.941406 Z M 0 0.0585938 " fill-opacity="1" fill-rule="nonzero"/></g></g><g clip-path="url(#949b1be22f)"><path fill="#ffffff" d="M 111.269531 58.90625 C 114.683594 58.90625 117.453125 56.132812 117.453125 52.71875 C 117.453125 49.300781 114.683594 46.527344 111.269531 46.527344 C 107.851562 46.527344 105.085938 49.300781 105.085938 52.71875 C 105.085938 56.132812 107.851562 58.90625 111.269531 58.90625 " fill-opacity="1" fill-rule="nonzero"/></g><g clip-path="url(#a60abf5137)"><path fill="#ffffff" d="M 166.921875 130.574219 L 166.921875 72.132812 L 181.46875 130.574219 Z M 150.519531 130.574219 L 165.066406 72.132812 L 165.066406 130.574219 Z M 59.636719 130.574219 L 59.636719 72.132812 L 74.183594 130.574219 Z M 43.234375 130.574219 L 57.78125 72.132812 L 57.78125 130.574219 Z M 183.378906 130.574219 L 168.335938 70.136719 C 170.417969 69.140625 171.867188 67.03125 171.867188 64.566406 C 171.867188 61.144531 169.097656 58.375 165.683594 58.375 C 163.226562 58.375 161.121094 59.824219 160.125 61.902344 C 148.109375 62.675781 140.363281 67.042969 133.378906 70.988281 C 127.941406 74.058594 123.066406 76.777344 116.71875 77.796875 L 116.71875 66.800781 L 122.242188 66.800781 L 122.242188 61.226562 L 99.984375 61.226562 L 99.984375 66.800781 L 105.820312 66.800781 L 105.820312 77.820312 C 99.394531 76.816406 94.480469 74.085938 89.003906 70.988281 C 82.4375 67.277344 75.199219 63.199219 64.363281 62.082031 C 63.410156 59.902344 61.238281 58.375 58.707031 58.375 C 56.210938 58.375 54.070312 59.867188 53.09375 62 C 53.03125 62.007812 52.976562 62.007812 52.914062 62.011719 L 52.945312 62.367188 C 52.683594 63.054688 52.523438 63.789062 52.523438 64.566406 C 52.523438 67.140625 54.09375 69.34375 56.332031 70.277344 L 41.324219 130.574219 L 40.773438 130.574219 C 40.773438 130.574219 42.117188 142.148438 58.707031 142.148438 C 75.300781 142.148438 76.640625 130.574219 76.640625 130.574219 L 76.09375 130.574219 L 61.085938 70.277344 C 62.34375 69.753906 63.371094 68.8125 64.042969 67.644531 C 73.601562 68.679688 80.011719 72.304688 86.265625 75.839844 C 91.996094 79.078125 97.917969 82.367188 105.820312 83.433594 L 105.820312 167.3125 L 95.960938 167.3125 L 95.960938 172.882812 L 85.761719 172.882812 L 85.761719 178.453125 L 139.792969 178.453125 L 139.792969 172.882812 L 129.355469 172.882812 L 129.355469 167.3125 L 116.71875 167.3125 L 116.71875 83.410156 C 124.542969 82.324219 130.425781 79.054688 136.117188 75.839844 C 142.78125 72.074219 149.628906 68.210938 160.261719 67.480469 C 160.976562 68.8125 162.152344 69.847656 163.589844 70.367188 L 148.605469 130.574219 L 148.058594 130.574219 C 148.058594 130.574219 149.398438 142.148438 165.996094 142.148438 C 182.585938 142.148438 183.925781 130.574219 183.925781 130.574219 L 183.378906 130.574219 " fill-opacity="1" fill-rule="nonzero"/></g></svg>